<svg xmlns="http://www.w3.org/2000/svg" width="1133" height="925" viewBox="0 0 1133 925">
<g>
<path d="M 79.07 742.96 C76.65,744.26 74.02,744.24 71.75,742.92 C70.09,741.95 70.00,729.86 70.00,511.16 C70.00,494.44 70.00,478.90 70.00,464.45 C69.97,284.91 69.97,274.41 74.14,265.97 C74.73,264.77 75.41,263.60 76.19,262.00 C80.74,252.59 92.39,241.14 102.14,236.51 C115.16,230.33 118.20,230.04 169.75,230.02 L 216.00 230.00 L 216.00 178.00 L 271.00 178.00 L 271.00 230.00 L 334.00 230.00 L 334.02 159.75 C334.03,121.11 334.46,86.61 334.97,83.08 C337.02,68.91 347.76,54.66 361.48,47.92 L 368.45 44.50 L 408.98 43.86 C460.45,43.05 599.00,43.06 679.52,43.87 L 741.55 44.50 L 748.29 47.82 C757.24,52.23 766.77,61.76 771.18,70.71 L 774.50 77.46 L 774.77 153.73 L 775.05 230.00 L 890.27 230.02 C987.75,230.03 1006.58,230.26 1012.50,231.50 C1032.90,235.79 1049.66,251.16 1056.65,272.00 C1058.42,277.27 1058.51,286.95 1058.80,505.00 C1058.96,630.12 1058.82,734.86 1058.48,737.75 C1057.94,742.32 1057.52,743.08 1055.29,743.64 C1053.88,744.00 1051.54,743.87 1050.11,743.37 L 1047.50 742.45 L 1046.50 277.50 L 1044.26 272.02 C1039.12,259.45 1029.50,249.77 1017.22,244.81 L 1011.50 242.50 L 893.27 242.23 L 775.04 241.96 L 774.77 348.75 L 774.50 455.54 L 771.11 462.43 C767.11,470.55 757.96,480.17 750.32,484.27 C746.45,486.34 742.71,487.31 735.33,488.14 C723.30,489.48 393.89,490.35 377.95,489.08 C369.04,488.36 366.42,487.73 360.99,484.99 C352.71,480.81 343.24,471.37 338.92,462.97 L 335.59 456.50 L 334.88 434.00 C334.50,421.62 334.14,373.36 334.09,326.75 L 334.00 242.00 L 227.75 242.01 C142.23,242.02 120.52,242.28 116.50,243.36 C98.40,248.20 84.66,263.46 82.04,281.61 C81.40,286.02 81.03,370.07 81.02,515.21 C81.00,738.33 80.97,741.95 79.07,742.96 ZM 503.50 478.09 C707.63,479.00 737.14,478.45 745.47,473.57 C751.04,470.31 758.67,461.95 761.32,456.22 L 763.50 451.50 L 763.50 81.50 L 760.71 75.82 C757.02,68.31 747.88,59.85 740.47,57.07 L 734.87 54.98 L 553.68 55.24 L 372.50 55.50 L 366.80 58.17 C359.86,61.42 353.07,68.02 349.31,75.16 L 346.50 80.50 L 346.50 452.50 L 349.34 457.89 C352.77,464.40 360.58,472.12 366.88,475.22 L 371.50 477.50 ZM 593.50 460.04 C585.48,461.76 579.33,462.25 562.50,462.50 C550.95,462.68 540.15,462.62 538.50,462.37 C500.05,456.62 471.35,443.94 442.83,420.09 C407.02,390.13 382.33,344.65 375.56,296.15 C373.51,281.41 373.50,252.20 375.55,238.13 C381.95,194.12 401.67,154.41 432.13,124.22 C459.35,97.24 492.27,79.89 528.50,73.42 C541.14,71.16 564.56,70.48 578.21,71.96 C617.80,76.27 653.87,93.52 683.87,122.48 C716.50,153.99 737.16,196.13 742.95,242.97 C744.43,254.93 744.22,281.56 742.54,294.14 C731.44,377.53 672.58,443.05 593.50,460.04 ZM 543.77 451.94 C563.31,453.96 589.98,450.93 610.13,444.41 C624.08,439.90 643.44,430.13 656.00,421.27 C668.16,412.68 689.51,391.31 698.22,379.00 C712.78,358.43 725.01,329.69 729.91,304.50 C733.89,284.05 734.33,255.56 730.98,235.50 C718.22,159.14 663.71,100.31 591.38,84.83 C581.81,82.78 577.85,82.50 558.50,82.54 C539.58,82.58 535.06,82.89 526.25,84.81 C473.87,96.20 431.10,129.37 406.11,178.00 C390.93,207.55 384.74,233.31 384.72,267.00 C384.71,287.76 386.19,299.63 391.09,318.00 C400.05,351.58 416.76,379.93 442.14,404.59 C469.99,431.65 504.97,447.95 543.77,451.94 ZM 571.86 440.98 C559.32,442.09 558.21,442.09 546.05,440.91 C482.26,434.77 428.19,389.50 407.06,324.56 C401.46,307.36 398.97,292.65 398.32,273.00 C397.01,233.32 407.28,196.98 428.87,164.90 C453.11,128.88 487.58,105.12 529.12,95.82 C538.14,93.81 542.19,93.50 560.00,93.50 C577.81,93.50 581.86,93.81 590.88,95.82 C627.45,104.01 660.36,124.87 683.55,154.54 C720.99,202.44 731.91,267.33 712.39,326.00 C695.30,377.37 656.04,417.75 607.50,433.87 C595.79,437.76 585.86,439.74 571.86,440.98 ZM 745.00 740.52 L 745.00 743.00 L 680.00 743.00 L 680.00 740.61 C680.00,738.02 681.64,737.00 685.83,736.99 C691.03,736.98 696.50,734.74 700.09,731.14 C705.87,725.34 706.00,723.43 706.00,643.38 C706.00,583.13 705.77,571.54 704.48,566.59 C701.70,555.90 697.51,552.35 686.47,551.32 C680.15,550.73 680.00,550.64 680.00,547.84 L 680.00 544.97 L 735.12 545.50 L 768.60 619.49 C787.01,660.18 802.44,693.84 802.89,694.29 C803.33,694.73 811.37,678.09 820.74,657.30 C830.11,636.51 845.33,602.74 854.56,582.25 L 871.33 545.00 L 927.00 545.00 L 927.00 547.85 C927.00,550.67 926.90,550.72 919.96,551.30 C910.43,552.10 905.40,554.96 902.05,561.47 L 899.50 566.45 L 899.50 721.50 L 902.00 726.50 C905.01,732.52 909.96,735.63 917.99,736.54 C926.14,737.46 927.00,737.85 927.00,740.57 L 927.00 743.00 L 844.00 743.00 L 844.00 740.64 C844.00,738.47 844.62,738.17 851.59,737.05 C857.98,736.02 859.81,735.26 863.09,732.30 C870.53,725.58 870.35,727.60 870.76,647.00 C870.98,602.45 870.77,575.88 870.18,576.50 C869.67,577.05 853.10,614.74 833.37,660.24 C798.92,739.72 797.40,742.99 794.88,742.99 C792.39,743.00 791.18,740.64 771.16,696.75 C759.56,671.31 743.07,635.20 734.53,616.50 L 718.99 582.50 L 719.24 653.00 L 719.50 723.50 L 721.76 727.74 C724.33,732.54 729.35,735.61 736.16,736.54 C744.52,737.67 745.00,737.89 745.00,740.52 ZM 276.00 740.63 L 276.00 743.00 L 187.00 743.00 L 187.00 740.60 C187.00,738.39 187.51,738.14 193.25,737.52 C206.73,736.05 212.70,732.22 214.85,723.67 C216.44,717.38 216.47,570.22 214.88,564.52 C213.24,558.58 207.63,553.51 201.20,552.14 C198.29,551.51 193.90,551.00 191.45,551.00 C187.17,551.00 187.00,550.88 187.00,548.00 L 187.00 545.00 L 347.00 545.00 L 347.00 548.06 C347.00,551.70 348.76,578.26 349.50,585.75 L 350.02 591.00 L 347.08 591.00 C344.34,591.00 344.07,590.64 343.05,585.75 C340.52,573.59 334.37,564.31 326.15,560.27 L 320.50 557.50 L 288.84 557.19 C255.08,556.85 250.01,557.36 247.77,561.28 C246.81,562.95 246.50,571.99 246.50,598.00 L 246.50 632.50 L 269.90 632.77 C295.16,633.06 302.16,632.16 308.23,627.84 C311.97,625.17 315.13,618.25 315.91,611.00 C316.46,605.91 316.71,605.48 319.25,605.18 L 322.00 604.87 L 322.00 674.00 L 319.00 674.00 C316.13,674.00 316.00,673.81 316.00,669.68 C316.00,663.34 313.34,655.46 309.86,651.50 C304.80,645.73 300.45,645.00 271.25,645.00 L 245.85 645.00 L 246.20 683.25 C246.51,717.68 246.73,721.93 248.38,725.75 C251.69,733.41 256.63,736.14 269.75,737.58 C275.47,738.20 276.00,738.46 276.00,740.63 ZM 654.65 717.57 L 646.33 742.50 L 566.66 742.76 L 487.00 743.01 L 487.00 740.53 C487.00,739.83 487.00,739.32 487.21,738.93 C487.77,737.86 489.84,737.59 497.45,736.58 C503.90,735.73 510.05,731.99 512.41,727.49 C514.47,723.56 514.50,722.42 514.77,646.20 C514.96,594.49 514.70,567.60 514.00,564.99 C511.78,556.74 505.25,552.42 493.35,551.30 C487.17,550.73 487.00,550.63 487.00,547.86 L 487.00 545.00 L 575.00 545.00 L 575.00 547.86 C575.00,550.69 574.96,550.71 567.43,551.28 C556.74,552.09 551.26,554.97 548.00,561.50 L 545.50 566.50 L 545.50 643.50 C545.50,647.16 545.50,650.66 545.50,653.99 C545.49,716.04 545.49,722.83 548.87,726.54 C549.47,727.19 550.17,727.75 551.00,728.50 C553.08,730.38 554.85,730.52 581.35,730.80 C604.33,731.04 610.81,730.80 616.70,729.49 C632.93,725.88 642.97,717.58 651.61,700.64 C656.35,691.35 656.52,691.15 659.48,691.71 C661.14,692.03 662.60,692.36 662.73,692.46 C662.86,692.55 659.22,703.85 654.65,717.57 ZM 461.00 740.63 L 461.00 743.00 L 372.00 743.00 L 372.00 740.58 C372.00,738.32 372.46,738.11 378.75,737.48 C388.70,736.49 395.32,733.20 398.19,727.83 L 400.50 723.50 L 400.77 646.08 L 400.79 640.42 C401.04,571.39 401.07,563.02 396.92,558.39 C396.24,557.62 395.44,556.96 394.51,556.15 C390.91,552.98 383.96,551.00 376.45,551.00 C372.17,551.00 372.00,550.88 372.00,548.00 L 372.00 545.00 L 461.00 545.00 L 461.00 547.86 C461.00,550.69 460.95,550.71 453.47,551.28 C442.35,552.12 437.45,554.81 434.13,561.90 L 431.50 567.50 L 431.20 640.00 C431.00,690.67 431.25,714.53 432.04,719.23 C434.08,731.34 438.86,735.43 453.07,737.25 C460.46,738.19 461.00,738.42 461.00,740.63 ZM 514.73 336.53 C523.12,338.27 534.68,337.66 543.21,335.01 C566.75,327.70 583.97,304.46 583.97,280.00 C583.97,267.79 578.74,252.66 571.72,244.54 L 568.31 240.59 L 563.21 243.86 L 558.12 247.13 L 561.71 251.82 C581.21,277.21 570.36,312.72 539.95,323.03 C534.55,324.86 531.94,325.14 523.89,324.77 C515.79,324.39 513.23,323.83 507.63,321.21 C500.14,317.70 491.08,309.69 487.29,303.23 C473.72,280.07 482.74,250.62 506.92,239.14 C513.64,235.95 515.55,235.51 524.18,235.16 C531.29,234.88 535.13,235.20 538.56,236.37 L 543.24 237.96 L 547.76 233.98 C550.25,231.79 552.78,229.98 553.39,229.95 C554.00,229.93 552.47,228.86 550.00,227.59 C545.97,225.51 542.15,224.39 532.50,222.44 L 529.50 221.84 L 532.50 219.76 C534.15,218.61 539.17,214.01 543.65,209.53 C552.54,200.64 554.80,196.10 553.58,189.58 C551.54,178.68 537.39,173.59 528.93,180.71 L 526.00 183.18 L 522.97 180.63 C518.77,177.09 513.94,176.37 508.47,178.46 C503.39,180.40 500.50,183.59 498.85,189.10 C497.90,192.28 498.00,193.71 499.44,197.48 C501.45,202.76 508.53,210.85 516.49,216.99 C519.55,219.35 521.86,221.47 521.63,221.71 C521.39,221.94 518.12,222.77 514.35,223.55 C491.21,228.35 473.41,247.01 469.31,270.77 C464.14,300.76 484.49,330.24 514.73,336.53 ZM 577.76 337.02 C583.89,338.13 595.45,337.35 602.19,335.37 C620.27,330.05 634.73,316.35 641.15,298.43 C644.13,290.12 644.79,274.70 642.54,266.08 C631.20,222.72 577.74,207.59 546.22,238.81 C538.76,246.21 533.02,255.98 530.53,265.55 C528.55,273.15 528.58,286.57 530.59,294.36 C532.35,301.19 537.74,311.99 541.55,316.33 L 544.04 319.16 L 548.47 316.57 C550.90,315.14 553.18,313.52 553.52,312.97 C553.86,312.41 552.96,310.55 551.51,308.83 C547.18,303.68 543.08,294.51 541.81,287.11 C538.47,267.64 548.60,248.25 566.80,239.25 C574.31,235.54 574.54,235.50 586.45,235.50 C597.93,235.50 598.82,235.65 605.26,238.70 C623.62,247.40 634.52,267.70 631.20,287.03 C627.39,309.24 608.87,325.00 586.57,325.00 C582.58,325.00 577.16,324.35 574.51,323.55 L 569.71 322.11 L 564.37 326.28 C559.16,330.35 559.08,330.48 561.27,331.69 C564.58,333.53 572.39,336.05 577.76,337.02 ZM 442.44 869.06 C437.05,871.18 434.60,871.43 416.14,871.79 C401.60,872.07 395.96,871.87 396.44,871.09 C396.81,870.49 398.02,870.00 399.12,870.00 C400.23,870.00 402.00,869.53 403.07,868.96 C404.91,867.98 405.00,866.58 405.00,839.04 C405.00,807.70 404.88,807.00 399.49,807.00 C398.18,807.00 396.81,806.50 396.43,805.88 C395.93,805.07 401.41,804.89 416.62,805.22 C434.92,805.62 438.18,805.94 443.00,807.82 C450.60,810.78 455.38,815.03 458.69,821.77 C461.17,826.83 461.50,828.61 461.50,837.00 C461.50,843.74 460.95,848.08 459.61,851.94 C457.08,859.21 450.31,865.95 442.44,869.06 ZM 748.54 870.46 C741.54,872.27 706.43,872.73 707.50,871.00 C707.84,870.45 709.18,870.00 710.49,870.00 C715.87,870.00 716.00,869.25 716.00,838.50 C716.00,807.75 715.87,807.00 710.49,807.00 C709.18,807.00 707.81,806.50 707.44,805.90 C706.25,803.97 746.32,805.32 752.87,807.43 C767.09,811.99 774.97,827.37 772.03,844.80 C769.75,858.31 761.76,867.04 748.54,870.46 ZM 359.42 869.06 C354.08,871.16 351.54,871.43 333.63,871.79 C319.44,872.07 313.96,871.87 314.44,871.09 C314.81,870.49 316.16,870.00 317.44,870.00 C321.93,870.00 322.29,868.29 322.73,844.71 C322.97,832.49 322.78,819.36 322.33,815.52 C321.54,808.92 321.34,808.50 318.50,807.64 C316.85,807.14 314.83,806.45 314.00,806.11 C311.25,804.99 346.40,804.90 352.89,806.01 C364.30,807.97 371.35,812.82 376.12,822.00 C378.15,825.91 378.46,827.94 378.48,837.50 C378.50,846.95 378.17,849.24 376.14,853.73 C373.11,860.43 366.91,866.11 359.42,869.06 ZM 415.87 866.35 C416.96,867.65 419.05,868.00 425.87,867.98 C439.01,867.94 444.51,864.76 449.16,854.49 C452.42,847.29 452.42,831.71 449.16,824.50 C444.40,813.95 437.50,809.71 422.88,808.35 C416.66,807.77 416.13,807.88 415.00,810.00 C413.19,813.39 413.97,864.05 415.87,866.35 ZM 333.73 866.58 C334.72,867.58 337.58,867.99 343.32,867.98 C352.97,867.95 357.97,866.08 362.65,860.74 C367.29,855.46 368.50,850.93 368.47,839.00 C368.45,829.57 368.16,827.91 365.65,822.74 C361.02,813.23 353.53,809.12 340.05,808.72 L 332.50 808.50 L 331.84 820.00 C330.84,837.18 331.97,864.82 333.73,866.58 ZM 726.87 866.35 C728.91,868.80 744.02,868.63 749.62,866.09 C757.77,862.38 762.11,853.45 762.27,840.00 C762.44,826.16 757.83,816.50 748.86,811.93 C743.72,809.31 729.55,807.16 727.20,808.65 C725.67,809.62 725.50,812.45 725.50,837.21 C725.50,859.04 725.78,865.04 726.87,866.35 ZM 176.44 848.44 C170.88,862.96 166.66,872.61 165.79,872.79 C164.71,873.01 162.40,866.37 156.55,846.29 C146.14,810.52 145.61,809.15 141.39,807.39 C139.53,806.61 138.00,805.75 138.00,805.49 C138.00,805.22 143.62,805.00 150.50,805.00 C158.17,805.00 163.00,805.39 163.00,806.00 C163.00,806.55 162.14,807.00 161.08,807.00 C157.73,807.00 156.00,808.15 156.00,810.38 C156.00,811.57 158.84,822.63 162.31,834.95 L 168.62 857.35 L 178.43 831.18 C184.22,815.75 188.78,805.00 189.53,805.00 C190.23,805.00 191.24,806.24 191.78,807.75 C193.36,812.19 208.16,852.27 209.23,855.00 C210.07,857.15 211.04,854.68 216.07,837.50 C223.40,812.52 223.91,809.56 221.17,808.09 C220.05,807.49 218.20,807.00 217.07,807.00 C215.93,807.00 215.00,806.55 215.00,806.00 C215.00,805.39 219.33,805.00 226.00,805.00 C232.05,805.00 237.00,805.25 237.00,805.55 C237.00,805.86 235.71,806.55 234.13,807.11 C230.36,808.42 229.68,810.03 218.62,844.07 C212.55,862.73 208.88,872.59 207.92,872.78 C206.90,872.97 205.46,870.20 203.10,863.50 C193.46,836.06 187.15,820.54 186.40,822.44 C185.98,823.51 181.50,835.21 176.44,848.44 ZM 578.38 841.46 C578.31,858.85 578.04,873.30 577.77,873.57 C577.50,873.84 567.20,860.66 554.89,844.28 L 532.50 814.50 L 532.20 821.50 C532.03,825.35 532.03,837.20 532.20,847.83 C532.48,865.62 532.66,867.28 534.44,868.58 C535.51,869.36 537.39,870.00 538.63,870.00 C539.87,870.00 541.16,870.45 541.50,871.00 C541.90,871.65 537.82,872.00 530.00,872.00 C522.18,872.00 518.10,871.65 518.50,871.00 C518.84,870.45 520.39,870.00 521.94,870.00 C527.31,870.00 527.47,869.13 527.82,838.62 C528.14,810.77 528.13,810.52 525.96,808.77 C524.76,807.80 522.73,807.00 521.45,807.00 C520.17,807.00 518.84,806.55 518.50,806.00 C518.10,805.36 521.42,805.00 527.73,805.00 L 537.57 805.00 L 545.16 815.25 C549.33,820.89 557.53,831.99 563.37,839.92 L 574.00 854.34 L 574.00 832.67 C574.00,812.33 573.88,810.88 572.00,809.00 C570.90,807.90 568.88,807.00 567.50,807.00 C566.12,807.00 565.00,806.55 565.00,806.00 C565.00,805.39 569.52,805.00 576.56,805.00 C584.01,805.00 587.90,805.36 587.50,806.00 C587.16,806.55 585.87,807.00 584.63,807.00 C583.39,807.00 581.51,807.64 580.44,808.42 C578.60,809.77 578.49,811.39 578.38,841.46 ZM 805.50 871.00 C805.90,871.64 802.01,872.00 794.56,872.00 C788.20,872.00 783.00,871.78 783.00,871.51 C783.00,871.25 784.47,870.41 786.27,869.66 C790.21,868.01 792.57,863.29 807.00,828.16 C815.58,807.26 816.97,804.50 818.94,804.50 C820.84,804.50 821.61,805.75 824.12,813.00 C832.18,836.28 842.58,863.57 844.46,866.36 C845.62,868.08 847.45,869.65 848.54,869.84 C849.62,870.03 850.93,870.60 851.45,871.10 C852.02,871.64 846.82,872.00 838.53,872.00 C825.00,872.00 822.50,871.48 829.20,870.07 C832.24,869.43 832.49,869.09 832.39,865.70 C832.32,863.67 831.04,858.62 829.52,854.48 L 826.77 846.94 L 803.50 847.50 L 800.29 856.00 C795.72,868.11 796.02,870.00 802.52,870.00 C803.82,870.00 805.16,870.45 805.50,871.00 ZM 645.00 872.96 C636.86,874.24 634.04,874.18 626.37,872.51 C618.07,870.70 615.07,868.99 609.62,862.93 C603.53,856.15 601.62,849.77 602.19,838.10 C603.37,813.90 621.66,800.64 649.16,804.07 C653.75,804.65 657.78,805.43 658.12,805.81 C659.17,806.97 659.95,821.00 658.97,821.00 C658.47,821.00 657.08,818.73 655.88,815.95 C653.28,809.89 650.40,808.15 641.66,807.33 C632.14,806.44 625.46,808.74 619.73,814.86 C616.64,818.17 614.64,821.47 613.58,825.06 C611.58,831.76 611.54,845.10 613.50,851.67 C615.33,857.85 621.91,865.60 627.46,868.12 C633.13,870.70 643.44,870.64 647.75,868.01 L 651.00 866.03 L 651.00 856.14 C651.00,845.34 650.60,844.47 645.15,843.38 C638.45,842.04 642.53,841.00 654.50,841.00 C666.20,841.00 670.24,841.97 664.53,843.40 C660.48,844.42 659.68,847.30 660.26,858.64 L 660.78 868.91 L 656.14 870.42 C653.59,871.25 648.58,872.39 645.00,872.96 ZM 299.01 868.75 L 299.00 872.00 L 272.75 871.93 C246.54,871.86 246.23,871.82 253.75,868.91 L 256.00 868.04 L 256.00 838.56 C256.00,810.43 255.91,809.02 254.07,808.04 C253.00,807.47 251.23,807.00 250.12,807.00 C249.02,807.00 247.84,806.55 247.50,806.00 C247.09,805.34 255.32,805.00 271.44,805.00 L 296.00 805.00 L 296.00 812.50 C296.00,816.62 295.61,820.00 295.13,820.00 C294.65,820.00 293.70,817.98 293.01,815.52 C292.32,813.05 291.07,810.48 290.25,809.79 C288.27,808.15 268.25,807.35 266.75,808.85 C266.15,809.45 265.47,815.62 265.21,822.96 L 264.73 836.00 L 271.12 835.88 C281.62,835.69 283.23,835.05 285.55,830.22 C286.68,827.87 287.84,826.18 288.13,826.46 C288.74,827.08 288.22,848.11 287.57,848.76 C287.33,849.00 286.63,847.34 286.02,845.06 C284.63,839.92 282.54,839.00 272.29,839.00 L 264.72 839.00 L 265.23 852.49 C265.58,861.60 266.18,866.51 267.08,867.60 C268.20,868.94 270.26,869.14 279.80,868.84 C290.79,868.49 291.27,868.38 293.56,865.73 C294.86,864.21 296.47,861.18 297.12,858.99 C298.86,853.19 300.40,853.97 299.65,860.25 C299.30,863.14 299.01,866.96 299.01,868.75 ZM 959.87 871.41 C952.79,874.37 938.58,874.14 930.86,870.94 C928.08,869.79 928.00,869.55 928.00,862.38 C928.00,854.82 929.31,852.58 930.52,858.07 C932.24,865.91 940.78,870.68 951.51,869.79 C958.00,869.25 962.59,865.70 963.58,860.45 C964.79,853.99 960.55,849.23 946.28,841.03 C934.74,834.40 930.90,830.13 930.29,823.29 C929.07,809.41 942.62,801.28 962.25,804.11 L 970.00 805.23 L 970.00 813.12 C970.00,817.45 969.66,820.99 969.25,820.99 C968.84,820.98 967.60,818.62 966.50,815.74 C964.05,809.32 960.20,807.00 951.98,807.00 C944.77,807.00 939.95,809.55 938.13,814.32 C935.53,821.13 938.56,825.95 949.32,832.11 C968.26,842.96 970.99,845.81 971.00,854.80 C971.00,862.86 967.38,868.27 959.87,871.41 ZM 897.50 871.00 C897.90,871.65 893.11,871.98 883.81,871.93 C869.41,871.86 869.23,871.79 876.60,868.98 C878.31,868.33 878.82,867.02 879.35,861.94 L 879.40 861.48 C880.10,854.76 880.50,850.90 879.85,847.23 C878.94,842.18 876.03,837.49 869.14,826.23 C859.89,811.12 857.82,808.36 855.14,807.54 C849.18,805.73 852.05,805.00 865.20,805.00 C873.21,805.00 878.03,805.36 877.45,805.92 C876.93,806.42 875.38,806.98 874.00,807.17 C872.40,807.38 871.40,808.22 871.22,809.50 C870.98,811.23 880.41,829.31 885.11,836.12 L 886.71 838.45 L 889.82 833.48 C891.53,830.74 895.05,824.43 897.65,819.45 C902.67,809.81 902.88,807.00 898.59,807.00 C897.23,807.00 895.84,806.55 895.50,806.00 C895.10,805.36 898.82,805.00 905.94,805.00 C912.65,805.00 917.00,805.39 917.00,806.00 C917.00,806.55 916.11,807.00 915.02,807.00 C911.65,807.00 907.46,811.90 897.46,827.50 L 887.85 842.50 L 888.51 855.00 C888.88,861.88 889.64,868.06 890.21,868.75 C890.78,869.44 892.51,870.00 894.06,870.00 C895.61,870.00 897.16,870.45 897.50,871.00 ZM 505.50 871.00 C505.90,871.65 501.32,872.00 492.50,872.00 C483.68,872.00 479.10,871.65 479.50,871.00 C479.84,870.45 481.16,870.00 482.44,870.00 C487.30,870.00 487.50,868.76 487.50,838.27 C487.50,811.28 487.40,809.77 485.56,808.42 C484.49,807.64 482.58,807.00 481.31,807.00 C480.04,807.00 479.00,806.55 479.00,806.00 C479.00,805.38 484.19,805.00 492.56,805.00 C501.34,805.00 505.90,805.35 505.50,806.00 C505.16,806.55 503.82,807.00 502.51,807.00 C497.12,807.00 497.00,807.70 497.00,839.04 C497.00,866.58 497.09,867.98 498.93,868.96 C500.00,869.53 501.77,870.00 502.88,870.00 C503.98,870.00 505.16,870.45 505.50,871.00 ZM 806.00 842.39 C806.00,842.72 810.31,843.00 815.57,843.00 C822.74,843.00 825.06,842.69 824.82,841.75 C823.48,836.65 816.44,817.00 815.96,817.00 C815.41,817.00 806.00,840.98 806.00,842.39 Z" fill="rgb(5,5,5)"/>
<path d="M 0.00 462.50 L 0.00 0.00 L 566.50 0.00 L 1133.00 0.00 L 1133.00 462.50 L 1133.00 925.00 L 566.50 925.00 L 0.00 925.00 L 0.00 462.50 ZM 578.38 841.46 C578.49,811.39 578.60,809.77 580.44,808.42 C581.51,807.64 583.39,807.00 584.63,807.00 C585.87,807.00 587.16,806.55 587.50,806.00 C587.90,805.36 584.01,805.00 576.56,805.00 C569.52,805.00 565.00,805.39 565.00,806.00 C565.00,806.55 566.12,807.00 567.50,807.00 C568.88,807.00 570.90,807.90 572.00,809.00 C573.88,810.88 574.00,812.33 574.00,832.67 L 574.00 854.34 L 563.37 839.92 C557.53,831.99 549.33,820.89 545.16,815.25 L 537.57 805.00 L 527.73 805.00 C521.42,805.00 518.10,805.36 518.50,806.00 C518.84,806.55 520.17,807.00 521.45,807.00 C522.73,807.00 524.76,807.80 525.96,808.77 C528.13,810.52 528.14,810.77 527.82,838.62 C527.47,869.13 527.31,870.00 521.94,870.00 C520.39,870.00 518.84,870.45 518.50,871.00 C518.10,871.65 522.18,872.00 530.00,872.00 C537.82,872.00 541.90,871.65 541.50,871.00 C541.16,870.45 539.87,870.00 538.63,870.00 C537.39,870.00 535.51,869.36 534.44,868.58 C532.66,867.28 532.48,865.62 532.20,847.83 C532.03,837.20 532.03,825.35 532.20,821.50 L 532.50 814.50 L 554.89 844.28 C567.20,860.66 577.50,873.84 577.77,873.57 C578.04,873.30 578.31,858.85 578.38,841.46 ZM 645.00 872.96 C648.58,872.39 653.59,871.25 656.14,870.42 L 660.78 868.91 L 660.26 858.64 C659.68,847.30 660.48,844.42 664.53,843.40 C670.24,841.97 666.20,841.00 654.50,841.00 C642.53,841.00 638.45,842.04 645.15,843.38 C650.60,844.47 651.00,845.34 651.00,856.14 L 651.00 866.03 L 647.75 868.01 C643.44,870.64 633.13,870.70 627.46,868.12 C621.91,865.60 615.33,857.85 613.50,851.67 C611.54,845.10 611.58,831.76 613.58,825.06 C614.64,821.47 616.64,818.17 619.73,814.86 C625.46,808.74 632.14,806.44 641.66,807.33 C650.40,808.15 653.28,809.89 655.88,815.95 C657.08,818.73 658.47,821.00 658.97,821.00 C659.95,821.00 659.17,806.97 658.12,805.81 C657.78,805.43 653.75,804.65 649.16,804.07 C621.66,800.64 603.37,813.90 602.19,838.10 C601.62,849.77 603.53,856.15 609.62,862.93 C615.07,868.99 618.07,870.70 626.37,872.51 C634.04,874.18 636.86,874.24 645.00,872.96 ZM 959.87 871.41 C967.38,868.27 971.00,862.86 971.00,854.80 C970.99,845.81 968.26,842.96 949.32,832.11 C938.56,825.95 935.53,821.13 938.13,814.32 C939.95,809.55 944.77,807.00 951.98,807.00 C960.20,807.00 964.05,809.32 966.50,815.74 C967.60,818.62 968.84,820.98 969.25,820.99 C969.66,820.99 970.00,817.45 970.00,813.12 L 970.00 805.23 L 962.25 804.11 C942.62,801.28 929.07,809.41 930.29,823.29 C930.90,830.13 934.74,834.40 946.28,841.03 C960.55,849.23 964.79,853.99 963.58,860.45 C962.59,865.70 958.00,869.25 951.51,869.79 C940.78,870.68 932.24,865.91 930.52,858.07 C929.31,852.58 928.00,854.82 928.00,862.38 C928.00,869.55 928.08,869.79 930.86,870.94 C938.58,874.14 952.79,874.37 959.87,871.41 ZM 176.44 848.44 C181.50,835.21 185.98,823.51 186.40,822.44 C187.15,820.54 193.46,836.06 203.10,863.50 C205.46,870.20 206.90,872.97 207.92,872.78 C208.88,872.59 212.55,862.73 218.62,844.07 C229.68,810.03 230.36,808.42 234.13,807.11 C235.71,806.55 237.00,805.86 237.00,805.55 C237.00,805.25 232.05,805.00 226.00,805.00 C219.33,805.00 215.00,805.39 215.00,806.00 C215.00,806.55 215.93,807.00 217.07,807.00 C218.20,807.00 220.05,807.49 221.17,808.09 C223.91,809.56 223.40,812.52 216.07,837.50 C211.04,854.68 210.07,857.15 209.23,855.00 C208.16,852.27 193.36,812.19 191.78,807.75 C191.24,806.24 190.23,805.00 189.53,805.00 C188.78,805.00 184.22,815.75 178.43,831.18 L 168.62 857.35 L 162.31 834.95 C158.84,822.63 156.00,811.57 156.00,810.38 C156.00,808.15 157.73,807.00 161.08,807.00 C162.14,807.00 163.00,806.55 163.00,806.00 C163.00,805.39 158.17,805.00 150.50,805.00 C143.62,805.00 138.00,805.22 138.00,805.49 C138.00,805.75 139.53,806.61 141.39,807.39 C145.61,809.15 146.14,810.52 156.55,846.29 C162.40,866.37 164.71,873.01 165.79,872.79 C166.66,872.61 170.88,862.96 176.44,848.44 ZM 299.01 868.75 C299.01,866.96 299.30,863.14 299.65,860.25 C300.40,853.97 298.86,853.19 297.12,858.99 C296.47,861.18 294.86,864.21 293.56,865.73 C291.27,868.38 290.79,868.49 279.80,868.84 C270.26,869.14 268.20,868.94 267.08,867.60 C266.18,866.51 265.58,861.60 265.23,852.49 L 264.72 839.00 L 272.29 839.00 C282.54,839.00 284.63,839.92 286.02,845.06 C286.63,847.34 287.33,849.00 287.57,848.76 C288.22,848.11 288.74,827.08 288.13,826.46 C287.84,826.18 286.68,827.87 285.55,830.22 C283.23,835.05 281.62,835.69 271.12,835.88 L 264.73 836.00 L 265.21 822.96 C265.47,815.62 266.15,809.45 266.75,808.85 C268.25,807.35 288.27,808.15 290.25,809.79 C291.07,810.48 292.32,813.05 293.01,815.52 C293.70,817.98 294.65,820.00 295.13,820.00 C295.61,820.00 296.00,816.62 296.00,812.50 L 296.00 805.00 L 271.44 805.00 C255.32,805.00 247.09,805.34 247.50,806.00 C247.84,806.55 249.02,807.00 250.12,807.00 C251.23,807.00 253.00,807.47 254.07,808.04 C255.91,809.02 256.00,810.43 256.00,838.56 L 256.00 868.04 L 253.75 868.91 C246.23,871.82 246.54,871.86 272.75,871.93 L 299.00 872.00 L 299.01 868.75 ZM 359.42 869.06 C366.91,866.11 373.11,860.43 376.14,853.73 C378.17,849.24 378.50,846.95 378.48,837.50 C378.46,827.94 378.15,825.91 376.12,822.00 C371.35,812.82 364.30,807.97 352.89,806.01 C346.40,804.90 311.25,804.99 314.00,806.11 C314.83,806.45 316.85,807.14 318.50,807.64 C321.34,808.50 321.54,808.92 322.33,815.52 C322.78,819.36 322.97,832.49 322.73,844.71 C322.29,868.29 321.93,870.00 317.44,870.00 C316.16,870.00 314.81,870.49 314.44,871.09 C313.96,871.87 319.44,872.07 333.63,871.79 C351.54,871.43 354.08,871.16 359.42,869.06 ZM 442.44 869.06 C450.31,865.95 457.08,859.21 459.61,851.94 C460.95,848.08 461.50,843.74 461.50,837.00 C461.50,828.61 461.17,826.83 458.69,821.77 C455.38,815.03 450.60,810.78 443.00,807.82 C438.18,805.94 434.92,805.62 416.62,805.22 C401.41,804.89 395.93,805.07 396.43,805.88 C396.81,806.50 398.18,807.00 399.49,807.00 C404.88,807.00 405.00,807.70 405.00,839.04 C405.00,866.58 404.91,867.98 403.07,868.96 C402.00,869.53 400.23,870.00 399.12,870.00 C398.02,870.00 396.81,870.49 396.44,871.09 C395.96,871.87 401.60,872.07 416.14,871.79 C434.60,871.43 437.05,871.18 442.44,869.06 ZM 505.50 871.00 C505.16,870.45 503.98,870.00 502.88,870.00 C501.77,870.00 500.00,869.53 498.93,868.96 C497.09,867.98 497.00,866.58 497.00,839.04 C497.00,807.70 497.12,807.00 502.51,807.00 C503.82,807.00 505.16,806.55 505.50,806.00 C505.90,805.35 501.34,805.00 492.56,805.00 C484.19,805.00 479.00,805.38 479.00,806.00 C479.00,806.55 480.04,807.00 481.31,807.00 C482.58,807.00 484.49,807.64 485.56,808.42 C487.40,809.77 487.50,811.28 487.50,838.27 C487.50,868.76 487.30,870.00 482.44,870.00 C481.16,870.00 479.84,870.45 479.50,871.00 C479.10,871.65 483.68,872.00 492.50,872.00 C501.32,872.00 505.90,871.65 505.50,871.00 ZM 748.54 870.46 C761.76,867.04 769.75,858.31 772.03,844.80 C774.97,827.37 767.09,811.99 752.87,807.43 C746.32,805.32 706.25,803.97 707.44,805.90 C707.81,806.50 709.18,807.00 710.49,807.00 C715.87,807.00 716.00,807.75 716.00,838.50 C716.00,869.25 715.87,870.00 710.49,870.00 C709.18,870.00 707.84,870.45 707.50,871.00 C706.43,872.73 741.54,872.27 748.54,870.46 ZM 805.50 871.00 C805.16,870.45 803.82,870.00 802.52,870.00 C796.02,870.00 795.72,868.11 800.29,856.00 L 803.50 847.50 L 815.14 847.22 L 826.77 846.94 L 829.52 854.48 C831.04,858.62 832.32,863.67 832.39,865.70 C832.49,869.09 832.24,869.43 829.20,870.07 C822.50,871.48 825.00,872.00 838.53,872.00 C846.82,872.00 852.02,871.64 851.45,871.10 C850.93,870.60 849.62,870.03 848.54,869.84 C847.45,869.65 845.62,868.08 844.46,866.36 C842.58,863.57 832.18,836.28 824.12,813.00 C821.61,805.75 820.84,804.50 818.94,804.50 C816.97,804.50 815.58,807.26 807.00,828.16 C792.57,863.29 790.21,868.01 786.27,869.66 C784.47,870.41 783.00,871.25 783.00,871.51 C783.00,871.78 788.20,872.00 794.56,872.00 C802.01,872.00 805.90,871.64 805.50,871.00 ZM 897.50 871.00 C897.16,870.45 895.61,870.00 894.06,870.00 C892.51,870.00 890.78,869.44 890.21,868.75 C889.64,868.06 888.88,861.88 888.51,855.00 L 887.85 842.50 L 897.46 827.50 C907.46,811.90 911.65,807.00 915.02,807.00 C916.11,807.00 917.00,806.55 917.00,806.00 C917.00,805.39 912.65,805.00 905.94,805.00 C898.82,805.00 895.10,805.36 895.50,806.00 C895.84,806.55 897.23,807.00 898.59,807.00 C902.88,807.00 902.67,809.81 897.65,819.45 C895.05,824.43 891.53,830.74 889.82,833.48 L 886.71 838.45 L 885.11 836.12 C880.41,829.31 870.98,811.23 871.22,809.50 C871.40,808.22 872.40,807.38 874.00,807.17 C875.38,806.98 876.93,806.42 877.45,805.92 C878.03,805.36 873.21,805.00 865.20,805.00 C852.05,805.00 849.18,805.73 855.14,807.54 C857.82,808.36 859.89,811.12 869.14,826.23 C881.16,845.86 881.06,845.52 879.35,861.94 C878.82,867.02 878.31,868.33 876.60,868.98 C869.23,871.79 869.41,871.86 883.81,871.93 C893.11,871.98 897.90,871.65 897.50,871.00 ZM 79.07 742.96 C80.97,741.95 81.00,738.33 81.02,515.21 C81.03,370.07 81.40,286.02 82.04,281.61 C84.66,263.46 98.40,248.20 116.50,243.36 C120.52,242.28 142.23,242.02 227.75,242.01 L 334.00 242.00 L 334.09 326.75 C334.14,373.36 334.50,421.62 334.88,434.00 L 335.59 456.50 L 338.92 462.97 C343.24,471.37 352.71,480.81 360.99,484.99 C366.42,487.73 369.04,488.36 377.95,489.08 C393.89,490.35 723.30,489.48 735.33,488.14 C742.71,487.31 746.45,486.34 750.32,484.27 C757.96,480.17 767.11,470.55 771.11,462.43 L 774.50 455.54 L 774.77 348.75 L 775.04 241.96 L 893.27 242.23 L 1011.50 242.50 L 1017.22 244.81 C1029.50,249.77 1039.12,259.45 1044.26,272.02 L 1046.50 277.50 L 1047.00 509.98 L 1047.50 742.45 L 1050.11 743.37 C1051.54,743.87 1053.88,744.00 1055.29,743.64 C1057.52,743.08 1057.94,742.32 1058.48,737.75 C1058.82,734.86 1058.96,630.12 1058.80,505.00 C1058.51,286.95 1058.42,277.27 1056.65,272.00 C1049.66,251.16 1032.90,235.79 1012.50,231.50 C1006.58,230.26 987.75,230.03 890.27,230.02 L 775.05 230.00 L 774.77 153.73 L 774.50 77.46 L 771.18 70.71 C766.77,61.76 757.24,52.23 748.29,47.82 L 741.55 44.50 L 679.52 43.87 C599.00,43.06 460.45,43.05 408.98,43.86 L 368.45 44.50 L 361.48 47.92 C347.76,54.66 337.02,68.91 334.97,83.08 C334.46,86.61 334.03,121.11 334.02,159.75 L 334.00 230.00 L 302.50 230.00 L 271.00 230.00 L 271.00 204.00 L 271.00 178.00 L 243.50 178.00 L 216.00 178.00 L 216.00 204.00 L 216.00 230.00 L 169.75 230.02 C118.20,230.04 115.16,230.33 102.14,236.51 C92.39,241.14 80.74,252.59 76.19,262.00 C69.53,275.76 70.00,256.99 70.00,511.16 C70.00,729.86 70.09,741.95 71.75,742.92 C74.02,744.24 76.65,744.26 79.07,742.96 ZM 276.00 740.63 C276.00,738.46 275.47,738.20 269.75,737.58 C256.63,736.14 251.69,733.41 248.38,725.75 C246.73,721.93 246.51,717.68 246.20,683.25 L 245.85 645.00 L 271.25 645.00 C300.45,645.00 304.80,645.73 309.86,651.50 C313.34,655.46 316.00,663.34 316.00,669.68 C316.00,673.81 316.13,674.00 319.00,674.00 L 322.00 674.00 L 322.00 639.43 L 322.00 604.87 L 319.25 605.18 C316.71,605.48 316.46,605.91 315.91,611.00 C315.13,618.25 311.97,625.17 308.23,627.84 C302.16,632.16 295.16,633.06 269.90,632.77 L 246.50 632.50 L 246.50 598.00 C246.50,571.99 246.81,562.95 247.77,561.28 C250.01,557.36 255.08,556.85 288.84,557.19 L 320.50 557.50 L 326.15 560.27 C334.37,564.31 340.52,573.59 343.05,585.75 C344.07,590.64 344.34,591.00 347.08,591.00 L 350.02 591.00 L 349.50 585.75 C348.76,578.26 347.00,551.70 347.00,548.06 L 347.00 545.00 L 267.00 545.00 L 187.00 545.00 L 187.00 548.00 C187.00,550.88 187.17,551.00 191.45,551.00 C193.90,551.00 198.29,551.51 201.20,552.14 C207.63,553.51 213.24,558.58 214.88,564.52 C216.47,570.22 216.44,717.38 214.85,723.67 C212.70,732.22 206.73,736.05 193.25,737.52 C187.51,738.14 187.00,738.39 187.00,740.60 L 187.00 743.00 L 231.50 743.00 L 276.00 743.00 L 276.00 740.63 ZM 461.00 740.63 C461.00,738.42 460.46,738.19 453.07,737.25 C438.86,735.43 434.08,731.34 432.04,719.23 C431.25,714.53 431.00,690.67 431.20,640.00 L 431.50 567.50 L 434.13 561.90 C437.45,554.81 442.35,552.12 453.47,551.28 C460.95,550.71 461.00,550.69 461.00,547.86 L 461.00 545.00 L 416.50 545.00 L 372.00 545.00 L 372.00 548.00 C372.00,550.88 372.17,551.00 376.45,551.00 C383.96,551.00 390.91,552.98 394.51,556.15 C401.23,562.04 401.08,559.93 400.77,646.08 L 400.50 723.50 L 398.19 727.83 C395.32,733.20 388.70,736.49 378.75,737.48 C372.46,738.11 372.00,738.32 372.00,740.58 L 372.00 743.00 L 416.50 743.00 L 461.00 743.00 L 461.00 740.63 ZM 654.65 717.57 C659.22,703.85 662.86,692.55 662.73,692.46 C662.60,692.36 661.14,692.03 659.48,691.71 C656.52,691.15 656.35,691.35 651.61,700.64 C642.97,717.58 632.93,725.88 616.70,729.49 C610.81,730.80 604.33,731.04 581.35,730.80 C554.85,730.52 553.08,730.38 551.00,728.50 C545.24,723.28 545.50,727.34 545.50,643.50 L 545.50 566.50 L 548.00 561.50 C551.26,554.97 556.74,552.09 567.43,551.28 C574.96,550.71 575.00,550.69 575.00,547.86 L 575.00 545.00 L 531.00 545.00 L 487.00 545.00 L 487.00 547.86 C487.00,550.63 487.17,550.73 493.35,551.30 C505.25,552.42 511.78,556.74 514.00,564.99 C514.70,567.60 514.96,594.49 514.77,646.20 C514.50,722.42 514.47,723.56 512.41,727.49 C510.05,731.99 503.90,735.73 497.45,736.58 C486.97,737.97 487.00,737.96 487.00,740.55 L 487.00 743.01 L 566.66 742.76 L 646.33 742.50 L 654.65 717.57 ZM 745.00 740.52 C745.00,737.89 744.52,737.67 736.16,736.54 C729.35,735.61 724.33,732.54 721.76,727.74 L 719.50 723.50 L 719.24 653.00 L 718.99 582.50 L 734.53 616.50 C743.07,635.20 759.56,671.31 771.16,696.75 C791.18,740.64 792.39,743.00 794.88,742.99 C797.40,742.99 798.92,739.72 833.37,660.24 C853.10,614.74 869.67,577.05 870.18,576.50 C870.77,575.88 870.98,602.45 870.76,647.00 C870.35,727.60 870.53,725.58 863.09,732.30 C859.81,735.26 857.98,736.02 851.59,737.05 C844.62,738.17 844.00,738.47 844.00,740.64 L 844.00 743.00 L 885.50 743.00 L 927.00 743.00 L 927.00 740.57 C927.00,737.85 926.14,737.46 917.99,736.54 C909.96,735.63 905.01,732.52 902.00,726.50 L 899.50 721.50 L 899.50 643.97 L 899.50 566.45 L 902.05 561.47 C905.40,554.96 910.43,552.10 919.96,551.30 C926.90,550.72 927.00,550.67 927.00,547.85 L 927.00 545.00 L 899.17 545.00 L 871.33 545.00 L 854.56 582.25 C845.33,602.74 830.11,636.51 820.74,657.30 C811.37,678.09 803.33,694.73 802.89,694.29 C802.44,693.84 787.01,660.18 768.60,619.49 L 735.12 545.50 L 707.56 545.23 L 680.00 544.97 L 680.00 547.84 C680.00,550.64 680.15,550.73 686.47,551.32 C697.51,552.35 701.70,555.90 704.48,566.59 C705.77,571.54 706.00,583.13 706.00,643.38 C706.00,723.43 705.87,725.34 700.09,731.14 C696.50,734.74 691.03,736.98 685.83,736.99 C681.64,737.00 680.00,738.02 680.00,740.61 L 680.00 743.00 L 712.50 743.00 L 745.00 743.00 L 745.00 740.52 ZM 333.73 866.58 C331.97,864.82 330.84,837.18 331.84,820.00 L 332.50 808.50 L 340.05 808.72 C353.53,809.12 361.02,813.23 365.65,822.74 C368.16,827.91 368.45,829.57 368.47,839.00 C368.50,850.93 367.29,855.46 362.65,860.74 C357.97,866.08 352.97,867.95 343.32,867.98 C337.58,867.99 334.72,867.58 333.73,866.58 ZM 415.87 866.35 C413.97,864.05 413.19,813.39 415.00,810.00 C416.13,807.88 416.66,807.77 422.88,808.35 C437.50,809.71 444.40,813.95 449.16,824.50 C452.42,831.71 452.42,847.29 449.16,854.49 C444.51,864.76 439.01,867.94 425.87,867.98 C419.05,868.00 416.96,867.65 415.87,866.35 ZM 726.87 866.35 C725.78,865.04 725.50,859.04 725.50,837.21 C725.50,812.45 725.67,809.62 727.20,808.65 C729.55,807.16 743.72,809.31 748.86,811.93 C757.83,816.50 762.44,826.16 762.27,840.00 C762.11,853.45 757.77,862.38 749.62,866.09 C744.02,868.63 728.91,868.80 726.87,866.35 ZM 806.00 842.39 C806.00,840.98 815.41,817.00 815.96,817.00 C816.44,817.00 823.48,836.65 824.82,841.75 C825.06,842.69 822.74,843.00 815.57,843.00 C810.31,843.00 806.00,842.72 806.00,842.39 ZM 503.50 478.09 L 371.50 477.50 L 366.88 475.22 C360.58,472.12 352.77,464.40 349.34,457.89 L 346.50 452.50 L 346.50 266.50 L 346.50 80.50 L 349.31 75.16 C353.07,68.02 359.86,61.42 366.80,58.17 L 372.50 55.50 L 553.68 55.24 L 734.87 54.98 L 740.47 57.07 C747.88,59.85 757.02,68.31 760.71,75.82 L 763.50 81.50 L 763.50 266.50 L 763.50 451.50 L 761.32 456.22 C758.67,461.95 751.04,470.31 745.47,473.57 C737.14,478.45 707.63,479.00 503.50,478.09 ZM 593.50 460.04 C672.58,443.05 731.44,377.53 742.54,294.14 C744.22,281.56 744.43,254.93 742.95,242.97 C737.16,196.13 716.50,153.99 683.87,122.48 C653.87,93.52 617.80,76.27 578.21,71.96 C564.56,70.48 541.14,71.16 528.50,73.42 C492.27,79.89 459.35,97.24 432.13,124.22 C401.67,154.41 381.95,194.12 375.55,238.13 C373.50,252.20 373.51,281.41 375.56,296.15 C382.33,344.65 407.02,390.13 442.83,420.09 C471.35,443.94 500.05,456.62 538.50,462.37 C540.15,462.62 550.95,462.68 562.50,462.50 C579.33,462.25 585.48,461.76 593.50,460.04 ZM 543.77 451.94 C504.97,447.95 469.99,431.65 442.14,404.59 C416.76,379.93 400.05,351.58 391.09,318.00 C386.19,299.63 384.71,287.76 384.72,267.00 C384.74,233.31 390.93,207.55 406.11,178.00 C431.10,129.37 473.87,96.20 526.25,84.81 C535.06,82.89 539.58,82.58 558.50,82.54 C577.85,82.50 581.81,82.78 591.38,84.83 C663.71,100.31 718.22,159.14 730.98,235.50 C734.33,255.56 733.89,284.05 729.91,304.50 C725.01,329.69 712.78,358.43 698.22,379.00 C689.51,391.31 668.16,412.68 656.00,421.27 C643.44,430.13 624.08,439.90 610.13,444.41 C589.98,450.93 563.31,453.96 543.77,451.94 ZM 571.86 440.98 C585.86,439.74 595.79,437.76 607.50,433.87 C656.04,417.75 695.30,377.37 712.39,326.00 C731.91,267.33 720.99,202.44 683.55,154.54 C660.36,124.87 627.45,104.01 590.88,95.82 C581.86,93.81 577.81,93.50 560.00,93.50 C542.19,93.50 538.14,93.81 529.12,95.82 C487.58,105.12 453.11,128.88 428.87,164.90 C407.28,196.98 397.01,233.32 398.32,273.00 C398.97,292.65 401.46,307.36 407.06,324.56 C428.19,389.50 482.26,434.77 546.05,440.91 C558.21,442.09 559.32,442.09 571.86,440.98 ZM 514.73 336.53 C484.49,330.24 464.14,300.76 469.31,270.77 C473.41,247.01 491.21,228.35 514.35,223.55 C518.12,222.77 521.39,221.94 521.63,221.71 C521.86,221.47 519.55,219.35 516.49,216.99 C508.53,210.85 501.45,202.76 499.44,197.48 C498.00,193.71 497.90,192.28 498.85,189.10 C500.50,183.59 503.39,180.40 508.47,178.46 C513.94,176.37 518.77,177.09 522.97,180.63 L 526.00 183.18 L 528.93 180.71 C537.39,173.59 551.54,178.68 553.58,189.58 C554.80,196.10 552.54,200.64 543.65,209.53 C539.17,214.01 534.15,218.61 532.50,219.76 L 529.50 221.84 L 532.50 222.44 C542.15,224.39 545.97,225.51 550.00,227.59 C552.47,228.86 554.00,229.93 553.39,229.95 C552.78,229.98 550.25,231.79 547.76,233.98 L 543.24 237.96 L 538.56 236.37 C535.13,235.20 531.29,234.88 524.18,235.16 C515.55,235.51 513.64,235.95 506.92,239.14 C482.74,250.62 473.72,280.07 487.29,303.23 C491.08,309.69 500.14,317.70 507.63,321.21 C513.23,323.83 515.79,324.39 523.89,324.77 C531.94,325.14 534.55,324.86 539.95,323.03 C570.36,312.72 581.21,277.21 561.71,251.82 L 558.12 247.13 L 563.21 243.86 L 568.31 240.59 L 571.72 244.54 C578.74,252.66 583.97,267.79 583.97,280.00 C583.97,304.46 566.75,327.70 543.21,335.01 C534.68,337.66 523.12,338.27 514.73,336.53 ZM 577.76 337.02 C572.39,336.05 564.58,333.53 561.27,331.69 C559.08,330.48 559.16,330.35 564.37,326.28 L 569.71 322.11 L 574.51 323.55 C577.16,324.35 582.58,325.00 586.57,325.00 C608.87,325.00 627.39,309.24 631.20,287.03 C634.52,267.70 623.62,247.40 605.26,238.70 C598.82,235.65 597.93,235.50 586.45,235.50 C574.54,235.50 574.31,235.54 566.80,239.25 C548.60,248.25 538.47,267.64 541.81,287.11 C543.08,294.51 547.18,303.68 551.51,308.83 C552.96,310.55 553.86,312.41 553.52,312.97 C553.18,313.52 550.90,315.14 548.47,316.57 L 544.04 319.16 L 541.55 316.33 C537.74,311.99 532.35,301.19 530.59,294.36 C528.58,286.57 528.55,273.15 530.53,265.55 C533.02,255.98 538.76,246.21 546.22,238.81 C577.74,207.59 631.20,222.72 642.54,266.08 C644.79,274.70 644.13,290.12 641.15,298.43 C634.73,316.35 620.27,330.05 602.19,335.37 C595.45,337.35 583.89,338.13 577.76,337.02 Z" fill="rgb(254,254,254)"/>
</g>
</svg>