<?xml version="1.0" encoding="UTF-8"?>
<svg version="1.1" xmlns="http://www.w3.org/2000/svg" width="1024" height="836">
<path d="M0 0 C337.92 0 675.84 0 1024 0 C1024 275.88 1024 551.76 1024 836 C686.08 836 348.16 836 0 836 C0 560.12 0 284.24 0 0 Z " fill="none" transform="translate(0,0)"/>
<path d="M0 0 C29.1843186 25.58067463 46.96690277 60.4564831 52.46142578 98.66455078 C52.63198486 99.56431641 52.80254395 100.46408203 52.97827148 101.39111328 C53.52974764 105.1274409 53.65943092 108.80252068 53.69970703 112.57080078 C53.70945557 113.32431824 53.7192041 114.07783569 53.72924805 114.85418701 C53.90027988 131.51140472 53.6886313 147.43842584 49.46142578 163.66455078 C49.27418945 164.42026367 49.08695313 165.17597656 48.89404297 165.95458984 C46.19388716 176.69458783 42.16943581 186.66002947 37.46142578 196.66455078 C37.02830078 197.60041016 36.59517578 198.53626953 36.14892578 199.50048828 C31.43125526 209.33931431 25.36117466 218.23902574 18.46142578 226.66455078 C17.64802734 227.67517578 16.83462891 228.68580078 15.99658203 229.72705078 C-3.11613245 253.16196413 -27.15683695 268.02120272 -55.53857422 277.66455078 C-56.47314453 277.99326172 -57.40771484 278.32197266 -58.37060547 278.66064453 C-60.74503309 279.44133368 -63.10893289 280.077449 -65.53857422 280.66455078 C-67.18212891 281.08027344 -67.18212891 281.08027344 -68.85888672 281.50439453 C-105.52872634 289.82579075 -143.89322284 280.89499249 -175.53857422 261.66455078 C-195.54572679 248.65387017 -211.66644598 231.64634191 -224.53857422 211.66455078 C-224.91401367 211.08189453 -225.28945313 210.49923828 -225.67626953 209.89892578 C-237.3977321 191.36970702 -243.8867642 170.12163568 -247.53857422 148.66455078 C-247.74611328 147.64232422 -247.95365234 146.62009766 -248.16748047 145.56689453 C-255.50635205 106.61442232 -243.68041806 63.02113908 -222.06835938 30.44873047 C-198.33103266 -3.82894105 -163.25047382 -28.66763235 -121.85107422 -36.33544922 C-77.21043288 -43.25985382 -33.72408533 -29.27177829 0 0 Z " fill="#000000" transform="translate(605.53857421875,139.33544921875)"/>
<path d="M0 0 C1.21344922 -0.00694553 2.42689843 -0.01389106 3.67711884 -0.02104706 C7.02405794 -0.03611686 10.37010235 -0.03339933 13.71700013 -0.02289402 C17.33469254 -0.01587785 20.95229573 -0.0319182 24.56996155 -0.04489136 C31.64879478 -0.06649632 38.72746704 -0.0664135 45.80632239 -0.05826581 C51.56166338 -0.05195743 57.31695754 -0.05311052 63.07229805 -0.05953789 C63.8924737 -0.06043954 64.71264935 -0.0613412 65.55767881 -0.06227018 C67.2240367 -0.06412144 68.89039458 -0.065984 70.55675245 -0.06785773 C86.17108103 -0.08442401 101.78531916 -0.07572701 117.3996423 -0.05887216 C131.67371736 -0.04417642 145.9475819 -0.05880385 160.22162985 -0.08764232 C174.89180701 -0.11705953 189.56188709 -0.12800182 204.23209244 -0.11846012 C205.89251171 -0.11743761 207.55293099 -0.11644299 209.2133503 -0.11547661 C210.03022903 -0.11500022 210.84710777 -0.11452383 211.68874041 -0.114033 C217.43397443 -0.11187193 223.17911619 -0.12165658 228.92432976 -0.13624763 C235.93056777 -0.15379368 242.93653747 -0.15362121 249.94276505 -0.13089598 C253.51477579 -0.11977417 257.08631421 -0.11654368 260.65830421 -0.13519669 C264.53660832 -0.15518807 268.41417892 -0.13617063 272.29248047 -0.11352539 C273.9729967 -0.13127898 273.9729967 -0.13127898 275.68746275 -0.14939123 C285.51037919 -0.03306241 293.03076079 3.32944197 300.24488831 9.9834137 C307.83414908 17.91672096 308.00552696 26.23096875 307.97715759 36.60238647 C307.98168871 37.81821039 307.98621982 39.03403431 307.99088824 40.28670138 C308.00133818 43.6493199 308.00286158 47.01172406 308.00049949 50.37434351 C308.00009051 54.00568135 308.0111381 57.63698754 308.02061462 61.26831055 C308.03720789 68.37812454 308.0427234 75.48790537 308.04383938 82.59773711 C308.04479061 88.37838194 308.04890464 94.15901584 308.05524063 99.93965721 C308.07284815 116.33823255 308.08208022 132.73678174 308.08057968 149.1353666 C308.08049977 150.01890622 308.08041986 150.90244585 308.08033752 151.8127594 C308.08025576 152.69738099 308.080174 153.58200257 308.08008976 154.49343088 C308.07927691 168.82903103 308.09841571 183.16452611 308.12661426 197.50009588 C308.15535723 212.2289549 308.16915379 226.95776269 308.16742671 241.68665045 C308.16676331 249.95212378 308.17223341 258.21748693 308.19378281 266.48293495 C308.21201317 273.52028557 308.21632673 280.55747606 308.20276396 287.59484009 C308.19624372 291.18298685 308.19608251 294.77082658 308.21347046 298.35894394 C308.23215483 302.25476727 308.21962199 306.1501447 308.20420837 310.04598999 C308.2144955 311.17158933 308.22478263 312.29718867 308.23538148 313.45689708 C308.15963439 322.13423215 306.42413032 330.34284584 300.33473206 336.8896637 C299.79074768 337.49552307 299.24676331 338.10138245 298.68629456 338.7256012 C285.97283955 350.23303676 263.65462013 346.82231078 247.60470986 346.82009017 C244.11330511 346.82176031 240.62193815 346.8348655 237.1305542 346.84628296 C229.52995969 346.8689493 221.92939341 346.87703115 214.32876968 346.8821094 C209.57618552 346.88538307 204.8236093 346.89191479 200.07102966 346.89911079 C186.88713852 346.91864006 173.70325468 346.93506994 160.51934814 346.93798733 C159.25883317 346.93826868 159.25883317 346.93826868 157.97285324 346.93855572 C156.26973756 346.93892194 154.56662188 346.93928564 152.8635062 346.93964683 C151.59556915 346.93992105 151.59556915 346.93992105 150.30201721 346.94020081 C149.45568509 346.94038135 148.60935297 346.9405619 147.73737442 346.94074792 C133.99339677 346.94429728 120.24957499 346.97138348 106.50565147 347.00869869 C92.36295628 347.04678742 78.22033856 347.06614477 64.07759094 347.06644684 C56.14928991 347.0670307 48.22117579 347.07547896 40.29292297 347.1044445 C33.55147105 347.12896408 26.81027449 347.1362363 20.06879002 347.12119698 C16.63251775 347.11403458 13.19674981 347.11485654 9.76053429 347.13760757 C6.03100159 347.15801324 2.30277329 347.14754667 -1.42674255 347.12939453 C-2.50563311 347.1425945 -3.58452366 347.15579447 -4.69610786 347.16939443 C-13.00074754 347.07713829 -18.42655356 344.6726222 -24.81370544 339.4521637 C-30.9073542 333.07568736 -34.40425707 328.3287682 -34.42728233 319.33395958 C-34.43235688 318.28017691 -34.43743142 317.22639424 -34.44265974 316.14067876 C-34.44315749 314.98408494 -34.44365525 313.82749112 -34.44416809 312.635849 C-34.44855034 311.40625414 -34.4529326 310.17665929 -34.45744765 308.90980399 C-34.46850688 305.49486077 -34.4750584 302.0799633 -34.4796288 298.66500878 C-34.48559007 294.9824991 -34.49719857 291.30000625 -34.50791931 287.61750793 C-34.53243087 278.72324698 -34.54706842 269.82898046 -34.55997938 260.93469614 C-34.56369215 258.42209855 -34.56766531 255.90950151 -34.57173204 253.39690447 C-34.59696885 237.79011809 -34.6190194 222.18333082 -34.63146019 206.57652855 C-34.63438983 202.96231966 -34.6373515 199.3481108 -34.6403656 195.73390198 C-34.64111165 194.83562143 -34.6418577 193.93734088 -34.64262636 193.0118397 C-34.65527801 178.4626388 -34.68849935 163.91356016 -34.73016743 149.36441641 C-34.77260719 134.42321671 -34.79615755 119.48207957 -34.80138075 104.54081976 C-34.8047925 96.15342033 -34.81651974 87.76621198 -34.84948349 79.37887192 C-34.87751321 72.235304 -34.88847055 65.09196636 -34.87728803 57.94834773 C-34.87210883 54.30546766 -34.87493915 50.66306959 -34.89975357 47.02025986 C-34.92646999 43.06510558 -34.91416037 39.1106046 -34.89826965 35.15538025 C-34.91215174 34.01217076 -34.92603383 32.86896127 -34.94033659 31.69110906 C-34.85474043 23.03243185 -32.52092747 16.86160802 -27.36839294 9.9287262 C-26.76511169 9.33833557 -26.16183044 8.74794495 -25.54026794 8.1396637 C-24.94729919 7.53380432 -24.35433044 6.92794495 -23.74339294 6.3037262 C-16.19235465 0.79675878 -9.17227652 -0.06733323 0 0 Z M28.14723206 64.2021637 C-1.44238321 98.18950159 -14.30790163 141.90977267 -12.29026794 186.5146637 C-11.25396114 199.8869627 -8.41595612 212.77667087 -4.29026794 225.5146637 C-4.04824646 226.27456604 -3.80622498 227.03446838 -3.55686951 227.81739807 C9.43790183 267.85534221 37.91165688 300.49545467 75.07643127 319.94044495 C108.82951518 336.73262106 147.58279356 339.72933356 183.46266174 328.13648987 C216.90218494 316.74651111 245.22793948 294.97706141 264.70973206 265.5146637 C265.35813049 264.54013245 266.00652893 263.5656012 266.67457581 262.5615387 C279.18599531 243.06197509 285.79166379 221.1942989 289.70973206 198.5146637 C289.97451355 197.14362488 289.97451355 197.14362488 290.24464417 195.74488831 C290.78560915 191.98766639 290.88964452 188.29041251 290.91285706 184.50294495 C290.9234465 183.3605687 290.9234465 183.3605687 290.93424988 182.19511414 C291.13120203 154.69002904 288.55118844 129.79417732 276.70973206 104.5146637 C276.43967346 103.92298401 276.16961487 103.33130432 275.89137268 102.72169495 C259.67594843 67.42719536 230.14461429 37.65803436 193.68629456 23.51075745 C184.17510315 19.9886275 174.70388225 17.27699962 164.70973206 15.5146637 C163.93041321 15.34837463 163.15109436 15.18208557 162.34815979 15.01075745 C111.72452143 4.67092432 62.33950315 27.98776904 28.14723206 64.2021637 Z " fill="#F1EFE5" transform="translate(368.29026794433594,88.48533630371094)"/>
<path d="M0 0 C1.8526924 -0.01253499 1.8526924 -0.01253499 3.74281293 -0.02532321 C7.15041688 -0.04425378 10.55716275 -0.04540952 13.96475518 -0.03875387 C17.64797896 -0.03586912 21.3310909 -0.05595648 25.01426697 -0.07290649 C32.22276357 -0.10221253 39.43112011 -0.10955746 46.63967016 -0.10833099 C52.50272117 -0.10749731 58.36572805 -0.11337338 64.2287693 -0.12395668 C82.68379025 -0.15662118 101.13867526 -0.16562426 119.59372089 -0.15686695 C134.13028266 -0.15088869 148.6665068 -0.18126406 163.20298441 -0.22848966 C178.14890863 -0.27666447 193.09467053 -0.29865728 208.04067403 -0.29317886 C216.4237021 -0.29060792 224.80640693 -0.29848735 233.18936729 -0.3342495 C240.32803702 -0.36446469 247.46621534 -0.37004477 254.60491159 -0.34444048 C258.24239546 -0.33207205 261.87895735 -0.33063828 265.51636314 -0.36014938 C295.43483817 -0.58725976 295.43483817 -0.58725976 308.50886536 10.84062195 C317.08944187 20.48562441 319.81714402 29.76527149 319.73591614 42.40849304 C319.73620819 43.59930481 319.73650024 44.79011658 319.73680115 46.01701355 C319.73564962 49.26869014 319.72564479 52.52019279 319.71165323 55.77183485 C319.69911919 59.17509672 319.69797327 62.57836229 319.69560242 65.98164368 C319.68939549 72.42009945 319.67299537 78.858487 319.65290344 85.29691279 C319.63051989 92.62943 319.61954484 99.96195054 319.60951257 107.29449344 C319.58862841 122.37240756 319.5534678 137.45025792 319.50886536 152.52812195 C320.47940133 152.52351298 321.44993731 152.51890402 322.44988346 152.51415539 C346.11373334 152.40293791 369.77754913 152.32088924 393.44160557 152.26906109 C404.88558835 152.24332832 416.32939802 152.20827225 427.77326965 152.15092468 C437.75292884 152.10093861 447.73246259 152.06879516 457.7122435 152.05767947 C462.99181814 152.05118642 468.27103407 152.03602933 473.55049324 151.99947166 C478.53031919 151.96527158 483.50964219 151.95511702 488.48957443 151.96258354 C490.30710404 151.96121965 492.12465229 151.95143138 493.94207954 151.93209457 C511.48336466 151.75477951 525.36912768 155.00255232 538.56355286 167.4695282 C546.27603271 175.66196925 550.75987826 186.05912444 550.75775433 197.33688164 C550.76036161 197.98792933 550.7629689 198.63897701 550.76565519 199.30975342 C550.77193103 201.48240508 550.76400728 203.654765 550.75610352 205.82740784 C550.75769249 207.40428656 550.76015696 208.98116459 550.76341993 210.55804074 C550.76982651 214.88432758 550.76377067 219.21052067 550.75565565 223.53680134 C550.74907332 228.20477406 550.7540282 232.87273639 550.75753784 237.54071045 C550.76257776 246.68087577 550.75694135 255.82100489 550.74768754 264.96116571 C550.73730515 275.59795241 550.73737366 286.23473127 550.73786012 296.87152208 C550.73836067 315.84169844 550.72919991 334.81185793 550.7146759 353.7820282 C550.70057667 372.20683601 550.69350564 390.63162898 550.69416809 409.05644226 C550.69420805 410.19208311 550.694248 411.32772396 550.69428917 412.49777816 C550.69432952 413.6314226 550.69436988 414.76506704 550.69441146 415.93306434 C550.6951004 436.89173801 550.68921797 457.85040536 550.68025824 478.80907699 C550.67723648 486.2316189 550.67617806 493.65415966 550.67572594 501.07670212 C550.67504543 510.11177428 550.67060323 519.14683578 550.66139313 528.18190341 C550.65676122 532.79563676 550.65373475 537.40935643 550.65498734 542.02309227 C550.65607656 546.23937447 550.65259988 550.45562633 550.64533881 554.67190219 C550.64351477 556.20400102 550.64340548 557.73610296 550.6451061 559.26820193 C550.64714961 561.33697448 550.64314587 563.40564546 550.63749981 565.4744091 C550.63679538 566.62762244 550.63609096 567.78083578 550.63536519 568.96899498 C550.50886536 571.52812195 550.50886536 571.52812195 549.50886536 572.52812195 C546.00886536 572.65312195 546.00886536 572.65312195 542.50886536 572.52812195 C540.70343672 570.72269331 541.38241643 567.96441591 541.38137341 565.53243446 C541.37836576 564.22050357 541.37535811 562.90857269 541.37225932 561.55688632 C541.37394722 560.08177279 541.3757183 558.60665936 541.37756348 557.13154602 C541.37586297 555.57934751 541.37371404 554.02714943 541.37115222 552.4749521 C541.36653952 549.08631346 541.3651374 545.69769312 541.36611748 542.30905151 C541.3677049 536.79628272 541.36251954 531.2835322 541.35649109 525.77076721 C541.34836413 517.76536184 541.34342935 509.75995967 541.34020042 501.75455093 C541.33471112 489.09917607 541.31782001 476.44382827 541.29885864 463.78846741 C541.29250118 459.46106152 541.28619281 455.13365557 541.27988148 450.80624962 C541.27829771 449.72462089 541.27671395 448.64299217 541.2750822 447.52858681 C541.25713114 435.20502886 541.24091299 422.88146898 541.22590637 410.5579071 C541.2245305 409.43090564 541.22315463 408.30390417 541.22173706 407.14275114 C541.19982547 388.89524305 541.189056 370.64774189 541.18153562 352.40022297 C541.17346151 333.67241155 541.15015898 314.94465958 541.11358196 296.21688211 C541.09156257 284.66314493 541.08189063 273.10953004 541.08808229 261.55577295 C541.09125955 253.63211739 541.07990909 245.70856611 541.05718788 237.78494282 C541.04453302 233.21449728 541.03833449 228.6442841 541.04960442 224.07382965 C541.0598003 219.88500231 541.05146724 215.69662525 541.02874146 211.50785093 C541.02376239 209.99693486 541.02544588 208.48597809 541.03467413 206.975082 C541.11153093 193.31119286 538.52526617 182.83357568 528.88386536 172.8445282 C521.36277549 165.86314617 512.83093212 163.3833469 502.77674866 163.36990356 C501.99337246 163.36496559 501.20999626 163.36002761 500.40288138 163.35494 C497.77577661 163.33957185 495.14869626 163.33120621 492.52156067 163.32279968 C490.639219 163.31322062 488.75687949 163.30321053 486.87454224 163.2928009 C481.76131956 163.2657488 476.64808764 163.24474086 471.53483295 163.22479892 C466.19231798 163.20294128 460.84983148 163.17555149 455.50733948 163.14874268 C445.3891464 163.09881281 435.27093753 163.05387505 425.15271354 163.01072031 C413.63407869 162.96135047 402.1154724 162.90643139 390.59686518 162.85104072 C366.90089188 162.73721615 343.20489119 162.63037812 319.50886536 162.52812195 C319.51439611 163.8348447 319.51439611 163.8348447 319.5200386 165.16796589 C319.60848882 186.39363342 319.67462321 207.61926906 319.71611404 228.84508228 C319.73671353 239.10985762 319.76478409 249.37450971 319.81062317 259.63920593 C319.85057103 268.58897588 319.87631716 277.53865654 319.88521934 286.48851317 C319.89042064 291.22465077 319.90259088 295.960533 319.93178558 300.69658852 C319.95908044 305.16091699 319.96728211 309.62488662 319.96129608 314.08929062 C319.96239006 315.72143572 319.97025981 317.35359372 319.98568726 318.98566628 C320.10111934 331.83530692 318.53864724 342.73028966 309.50886536 352.52812195 C306.96996911 355.05150559 304.3896477 357.40170967 301.50886536 359.52812195 C300.62693512 360.19635986 299.74500488 360.86459778 298.83634949 361.55308533 C292.86508152 364.89876526 285.72286952 364.49470939 279.04646301 364.76933289 C277.48619679 364.84516393 275.92594843 364.92136335 274.36571693 364.99790573 C257.11984669 365.79236356 239.86893524 365.76459971 222.60918474 365.68057919 C217.92979859 365.66008695 213.250387 365.6516326 208.57096863 365.64170837 C200.61741947 365.62347828 192.66391871 365.59826689 184.71040344 365.56889343 C173.57526036 365.52836849 162.44014754 365.5089906 151.30494356 365.49488354 C132.02864203 365.47031628 112.75256647 365.42016758 93.47639847 365.34418488 C83.13402515 365.30383053 72.79173996 365.27159462 62.44929504 365.25712585 C53.16225792 365.24412286 43.87538425 365.21731353 34.58843935 365.17350888 C29.74641324 365.15110219 24.90458644 365.13519978 20.06250381 365.1362381 C15.58133541 365.13698223 11.10062671 365.11913306 6.61957741 365.08695412 C4.98817224 365.07847054 3.35671546 365.07669468 1.72529793 365.08231926 C-6.69012284 365.10748014 -14.13185235 365.07646713 -21.49113464 360.52812195 C-22.34965027 359.99831726 -23.20816589 359.46851257 -24.09269714 358.9226532 C-32.87909789 352.05297694 -38.82264632 344.49090583 -41.49113464 333.52812195 C-42.03203646 327.87203206 -41.99889775 322.25894343 -41.94523621 316.58207703 C-41.94410591 314.89574714 -41.94474514 313.20941529 -41.94700623 311.52308655 C-41.94814721 306.97618677 -41.92473847 302.42971477 -41.8967104 297.88291383 C-41.8715933 293.11970874 -41.86934665 288.3564923 -41.86460876 283.5932312 C-41.85220915 274.58722315 -41.81942858 265.58141086 -41.77921081 256.57548875 C-41.73439897 246.31668991 -41.71248244 236.05788141 -41.69242907 225.79900897 C-41.6506931 204.70860432 -41.58040001 183.6183755 -41.49113464 162.52812195 C-64.3964587 162.56532274 -87.30162375 162.62523381 -110.20681572 162.71202469 C-120.84260682 162.75179828 -131.47832411 162.78419934 -142.11418152 162.79911804 C-151.38667791 162.81214323 -160.65901178 162.83913013 -169.93141663 162.88273501 C-174.83904423 162.90533022 -179.74647151 162.92103379 -184.65415573 162.9200058 C-189.2786236 162.91925804 -193.90264899 162.93725514 -198.52700233 162.96928978 C-200.21919167 162.97777012 -201.91143074 162.97955144 -203.60363197 162.97392464 C-217.84900696 162.93288623 -227.98158089 165.2990723 -238.49113464 175.52812195 C-246.4330438 185.16101176 -246.93004756 195.9705234 -246.87640381 207.94729614 C-246.88041471 209.51281659 -246.88574326 211.07833411 -246.89226955 212.64384609 C-246.90638275 216.92950588 -246.90200173 221.21497542 -246.8945564 225.50064456 C-246.88980888 230.12839888 -246.90238646 234.75610987 -246.91291809 239.3838501 C-246.92887915 247.39678555 -246.93417047 255.40967046 -246.93239021 263.42262077 C-246.9300058 275.01010981 -246.9460004 286.59751809 -246.96684276 298.184986 C-247.00035244 316.9887305 -247.02202617 335.79246777 -247.03483582 354.59623718 C-247.0356053 355.72107543 -247.03637479 356.84591368 -247.0371676 358.00483794 C-247.04027027 362.56325893 -247.04335308 367.12167994 -247.04640764 371.68010097 C-247.05494673 384.24427054 -247.06584555 396.80843762 -247.07780457 409.37260437 C-247.07887258 410.49819338 -247.0799406 411.62378239 -247.08104099 412.78348016 C-247.09910975 431.5261718 -247.12508532 450.26884614 -247.1559357 469.01152092 C-247.17452081 480.57653752 -247.18540737 492.14151533 -247.18645763 503.70654709 C-247.18755798 511.62068371 -247.19547558 519.53479368 -247.20884127 527.44891905 C-247.21628631 532.02027362 -247.22033219 536.59156991 -247.21572304 541.16292953 C-247.2115499 545.34159055 -247.21640062 549.52013697 -247.22863089 553.69878126 C-247.2314147 555.21603206 -247.23075988 556.73329356 -247.2264498 558.25054079 C-247.22109054 560.30162368 -247.22904397 562.35272881 -247.23780155 564.40380001 C-247.23845366 565.54643619 -247.23910576 566.68907238 -247.23977762 567.8663339 C-247.49113464 570.52812195 -247.49113464 570.52812195 -249.49113464 572.52812195 C-252.49113464 572.77812195 -252.49113464 572.77812195 -255.49113464 572.52812195 C-258.23314205 569.78611454 -257.74364532 568.27212959 -257.74840355 564.43059063 C-257.75485244 563.12138549 -257.76130133 561.81218034 -257.76794565 560.46330231 C-257.76500286 558.99643903 -257.76186738 557.52957613 -257.75856018 556.06271362 C-257.76229345 554.51520052 -257.76689367 552.96768929 -257.77229083 551.4201811 C-257.78457752 547.15138301 -257.78425369 542.88266295 -257.78190207 538.61385119 C-257.7814953 534.01576366 -257.79252007 529.41770162 -257.80201721 524.81962585 C-257.81866211 515.80242793 -257.82412844 506.78525614 -257.82524197 497.76804414 C-257.82619134 490.43600952 -257.83029609 483.10398356 -257.83664322 475.77195168 C-257.8542696 454.98736899 -257.86348058 434.202807 -257.86198227 413.41821679 C-257.86190236 412.29666567 -257.86182245 411.17511455 -257.86174011 410.01957703 C-257.86165835 408.8966563 -257.86157659 407.77373557 -257.86149235 406.61678693 C-257.86068033 388.4385551 -257.87979312 370.2604063 -257.90801685 352.08219846 C-257.93676336 333.41991166 -257.95055598 314.75766531 -257.94882929 296.09535581 C-257.94816572 285.61698328 -257.95364274 275.13869766 -257.97518539 264.66034508 C-257.99342102 255.73305889 -257.99772542 246.80589894 -257.98416655 237.87860217 C-257.97764729 233.32611537 -257.9774816 228.77387055 -257.99487305 224.22140694 C-258.0106565 220.04672151 -258.00768666 215.87246885 -257.99030478 211.69779364 C-257.98724629 210.19426538 -257.99082352 208.6907044 -258.00202493 207.18721475 C-258.11334085 191.17446769 -254.25829419 177.80152877 -243.30363464 165.77812195 C-230.31881219 153.66671804 -216.10008507 152.07619151 -199.23332214 152.2351532 C-197.47641871 152.24075804 -195.71951054 152.24502393 -193.96260071 152.24801636 C-189.36929566 152.2593953 -184.77628144 152.28880151 -180.18309021 152.3221283 C-174.65549223 152.35841764 -169.12779627 152.37202348 -163.60011292 152.38948822 C-155.23025208 152.41844392 -146.86102763 152.4759791 -138.49113464 152.52812195 C-138.49113464 138.66812195 -138.49113464 124.80812195 -138.49113464 110.52812195 C-123.31113464 110.52812195 -108.13113464 110.52812195 -92.49113464 110.52812195 C-92.49113464 124.38812195 -92.49113464 138.24812195 -92.49113464 152.52812195 C-75.66113464 152.52812195 -58.83113464 152.52812195 -41.49113464 152.52812195 C-41.51208191 148.99133728 -41.53302917 145.45455261 -41.55461121 141.81059265 C-41.6210519 130.09200238 -41.66534253 118.37338513 -41.69838333 106.65466022 C-41.71894079 99.55338193 -41.74692944 92.45228306 -41.79289246 85.35112 C-41.83297071 79.15614335 -41.8586169 72.96129675 -41.86748862 66.76619405 C-41.87266828 63.49092069 -41.88684984 60.21610231 -41.91405487 56.94092751 C-41.94332219 53.26965913 -41.94708079 49.59914742 -41.94523621 45.92778015 C-41.95961731 44.86178085 -41.97399841 43.79578156 -41.98881531 42.69747925 C-41.9205891 30.05201346 -38.47339752 19.57606865 -29.49113464 10.52812195 C-20.57802322 2.38853498 -11.90531685 -0.07161285 0 0 Z M-23.86613464 18.27812195 C-24.47199402 18.8710907 -25.07785339 19.46405945 -25.70207214 20.07499695 C-31.26094629 27.69720867 -32.07005473 34.7716146 -31.99234009 44.02839661 C-31.99787448 45.26438028 -32.00340888 46.50036396 -32.00911099 47.77380168 C-32.02032533 51.18355111 -32.01372643 54.59240215 -31.99937427 58.00208211 C-31.98822916 61.68718634 -32.00021863 65.37222722 -32.00921631 69.05732727 C-32.02312595 76.26751789 -32.01560988 83.47753298 -32.00054073 90.68771519 C-31.98365522 99.08755075 -31.98689402 107.48734291 -31.99063481 115.88719021 C-31.99650903 130.87512084 -31.98235804 145.86296738 -31.95768738 160.85087585 C-31.93375931 175.38931936 -31.92668702 189.92765056 -31.93717957 204.46611023 C-31.94859137 220.30661868 -31.95051625 236.14707522 -31.93608147 251.98758304 C-31.93455566 253.67687598 -31.9330353 255.36616893 -31.93152046 257.05546188 C-31.93076265 257.88658331 -31.93000483 258.71770474 -31.92922406 259.57401166 C-31.92448393 265.4273257 -31.92633068 271.28061653 -31.93058586 277.13393021 C-31.93551471 284.26683296 -31.92951818 291.39962957 -31.90969156 298.53250803 C-31.89982707 302.17086749 -31.89470533 305.80906542 -31.90258408 309.44743347 C-31.91095181 313.39232969 -31.89604714 317.33694265 -31.8788147 321.28181458 C-31.88482474 322.43035199 -31.89083479 323.57888941 -31.89702696 324.76223099 C-31.8134866 335.2580276 -28.83442421 341.07085672 -21.49113464 348.52812195 C-14.30452282 355.01360091 -8.36933197 355.96594803 1.0116272 355.90234375 C2.75929438 355.90830536 2.75929438 355.90830536 4.54226798 355.9143874 C7.76826555 355.92233818 10.99391579 355.91685672 14.21989334 355.90563691 C17.70277526 355.89678437 21.18562123 355.90524188 24.66850281 355.91149902 C31.49140557 355.92098622 38.31420254 355.914386 45.13709746 355.90223608 C53.09442148 355.8885964 61.05172045 355.89025597 69.00905319 355.89236941 C83.22182148 355.89555978 97.43453967 355.8838934 111.64729309 355.86430359 C125.41032948 355.84533881 139.17330707 355.83820568 152.93635559 355.84379578 C167.937888 355.84987093 182.93939454 355.84964178 197.94092482 355.83830994 C199.54506568 355.83710275 201.14920654 355.83589677 202.7533474 355.834692 C203.54248501 355.83408846 204.33162263 355.83348492 205.1446735 355.8328631 C210.67765736 355.82900113 216.21063155 355.82937102 221.7436161 355.83127785 C228.50481632 355.83341321 235.26596533 355.82807633 242.0271512 355.81366429 C245.47024963 355.80648089 248.91327398 355.80229045 252.35637856 355.80690765 C278.04541099 357.49399283 278.04541099 357.49399283 300.71199036 348.59062195 C308.7738819 339.33697252 310.80984962 331.66309568 310.76956177 319.54719543 C310.77338731 318.33081481 310.77721286 317.11443418 310.78115433 315.86119354 C310.78968071 312.49245063 310.78925332 309.12392626 310.78497374 305.75518966 C310.78250597 302.11910465 310.79152133 298.48304523 310.79901123 294.8469696 C310.81175897 287.72632211 310.81355182 280.60571233 310.81121097 273.48505534 C310.80942768 267.69674217 310.81117768 261.90844044 310.81543541 256.12012863 C310.81632819 254.88422624 310.81632819 254.88422624 310.81723901 253.62335613 C310.81845077 251.94950518 310.8196649 250.27565423 310.82088139 248.60180329 C310.83175728 232.90507128 310.82959424 217.20836076 310.82349654 201.51162754 C310.81832772 187.15523116 310.82958182 172.79890264 310.84859476 158.44251968 C310.86797204 143.69788287 310.87622933 128.95327816 310.87247151 114.20862854 C310.87055925 105.93204826 310.87304943 97.65552573 310.88718605 89.37895584 C310.89909943 82.33275855 310.90050526 75.28665457 310.88839588 68.240456 C310.88250678 64.64653966 310.88140849 61.05279398 310.89339828 57.45888901 C310.90625362 53.56018002 310.89579324 49.66172965 310.88308716 45.76301575 C310.89046144 44.6309086 310.89783573 43.49880146 310.90543348 42.33238804 C310.83769339 32.45996255 308.45028486 24.78437906 301.50886536 17.52812195 C295.67900378 12.88068379 289.89795436 9.28466031 282.28320026 9.26805973 C280.72566515 9.25746134 280.72566515 9.25746134 279.13666469 9.24664885 C278.00243845 9.24906393 276.86821221 9.25147902 275.69961548 9.25396729 C274.48958396 9.24873061 273.27955244 9.24349393 272.03285331 9.23809856 C268.67712178 9.22568945 265.32159981 9.22225508 261.96585977 9.22269547 C258.34538954 9.22104639 254.72495739 9.20797811 251.10450745 9.19650269 C243.18909582 9.17365976 235.27371101 9.16573272 227.35827088 9.16067624 C222.41411264 9.15741816 217.46996218 9.15089498 212.52580833 9.14367485 C198.83199343 9.12410924 185.13818575 9.107705 171.44435596 9.10479832 C170.56816665 9.10461075 169.69197733 9.10442318 168.78923682 9.10422992 C167.01304543 9.10386368 165.23685404 9.10349998 163.46066264 9.10313881 C162.5789792 9.102956 161.69729577 9.10277319 160.78889465 9.10258484 C159.90613268 9.10240429 159.0233707 9.10222374 158.11385836 9.10203772 C143.81367447 9.09849696 129.51364125 9.07148056 115.2135096 9.03408695 C100.52539376 8.99598676 85.83735265 8.97664071 71.14918631 8.9763388 C62.90489177 8.97575459 54.66077693 8.96728605 46.4165287 8.93834114 C39.39557621 8.91380423 32.37486895 8.90655979 25.35388515 8.92158867 C21.77378598 8.92874846 18.19417083 8.92794129 14.61412621 8.90517807 C10.72688188 8.88069916 6.84032448 8.89525029 2.95303345 8.91339111 C1.82996082 8.90019115 0.70688819 8.88699118 -0.45021695 8.87339121 C-9.55318371 8.97026229 -17.37378331 11.64401622 -23.86613464 18.27812195 Z " fill="#060606" transform="translate(365.4911346435547,79.47187805175781)"/>
<path d="M0 0 C29.1843186 25.58067463 46.96690277 60.4564831 52.46142578 98.66455078 C52.63198486 99.56431641 52.80254395 100.46408203 52.97827148 101.39111328 C53.52974764 105.1274409 53.65943092 108.80252068 53.69970703 112.57080078 C53.70945557 113.32431824 53.7192041 114.07783569 53.72924805 114.85418701 C53.90027988 131.51140472 53.6886313 147.43842584 49.46142578 163.66455078 C49.27418945 164.42026367 49.08695313 165.17597656 48.89404297 165.95458984 C46.19388716 176.69458783 42.16943581 186.66002947 37.46142578 196.66455078 C37.02830078 197.60041016 36.59517578 198.53626953 36.14892578 199.50048828 C31.43125526 209.33931431 25.36117466 218.23902574 18.46142578 226.66455078 C17.64802734 227.67517578 16.83462891 228.68580078 15.99658203 229.72705078 C-3.11613245 253.16196413 -27.15683695 268.02120272 -55.53857422 277.66455078 C-56.47314453 277.99326172 -57.40771484 278.32197266 -58.37060547 278.66064453 C-60.74503309 279.44133368 -63.10893289 280.077449 -65.53857422 280.66455078 C-67.18212891 281.08027344 -67.18212891 281.08027344 -68.85888672 281.50439453 C-105.52872634 289.82579075 -143.89322284 280.89499249 -175.53857422 261.66455078 C-195.54572679 248.65387017 -211.66644598 231.64634191 -224.53857422 211.66455078 C-224.91401367 211.08189453 -225.28945313 210.49923828 -225.67626953 209.89892578 C-237.3977321 191.36970702 -243.8867642 170.12163568 -247.53857422 148.66455078 C-247.74611328 147.64232422 -247.95365234 146.62009766 -248.16748047 145.56689453 C-255.50635205 106.61442232 -243.68041806 63.02113908 -222.06835938 30.44873047 C-198.33103266 -3.82894105 -163.25047382 -28.66763235 -121.85107422 -36.33544922 C-77.21043288 -43.25985382 -33.72408533 -29.27177829 0 0 Z M-193.66357422 24.91455078 C-217.12207073 52.3322872 -228.76092734 85.61435982 -228.78857422 121.47705078 C-228.78958633 122.65214706 -228.78958633 122.65214706 -228.7906189 123.85098267 C-228.76617015 141.70885245 -226.61444219 157.82312571 -220.53857422 174.66455078 C-220.09642578 175.90720703 -219.65427734 177.14986328 -219.19873047 178.43017578 C-213.59360477 193.27366656 -205.77772118 206.55290492 -195.53857422 218.66455078 C-195.10818848 219.17469727 -194.67780273 219.68484375 -194.234375 220.21044922 C-173.090956 244.93656844 -144.0090895 261.70509422 -111.53857422 265.66455078 C-75.26210715 267.97573279 -41.36636898 258.59902279 -13.53857422 234.66455078 C5.45917583 217.65302991 18.75468487 197.58799581 27.46142578 173.66455078 C28.0125 172.26269531 28.0125 172.26269531 28.57470703 170.83251953 C34.39809821 155.11610858 35.84509858 138.90345215 35.89892578 122.28955078 C35.90804993 121.22906525 35.90804993 121.22906525 35.9173584 120.14715576 C36.13570602 81.38144912 19.62494453 45.02518059 -7.16357422 17.53955078 C-24.01997175 0.81324893 -44.5010886 -10.57463617 -67.53857422 -16.33544922 C-68.80056641 -16.65384766 -70.06255859 -16.97224609 -71.36279297 -17.30029297 C-117.61824322 -27.69284075 -162.20257221 -8.65664039 -193.66357422 24.91455078 Z " fill="#ECEAE0" transform="translate(605.53857421875,139.33544921875)"/>
<path d="M0 0 C15.18 0 30.36 0 46 0 C48.94294875 5.8858975 51.80364403 11.65668607 54.375 17.6875 C56.5874586 22.81118337 58.86394124 27.89138529 61.25 32.9375 C64.46321226 39.73510914 67.4857859 46.61218711 70.5 53.5 C73.92212714 61.31798359 77.40830717 69.08680214 81.05859375 76.80078125 C83.8050934 82.67628051 86.38247199 88.62882122 89 94.5625 C93.09686028 103.83916685 97.28561235 113.01942353 102 122 C102.49628906 120.80246094 102.99257813 119.60492187 103.50390625 118.37109375 C104.18993939 116.72649376 104.87614695 115.08196651 105.5625 113.4375 C105.88541016 112.65697266 106.20832031 111.87644531 106.54101562 111.07226562 C108.93516887 105.3490993 111.50959883 99.72142277 114.14859009 94.10820007 C117.62371572 86.7021242 120.96278483 79.23580117 124.30801392 71.77038574 C129.3551423 60.50799782 134.41323132 49.25094623 139.5546875 38.03125 C139.91669754 37.24119568 140.27870758 36.45114136 140.65168762 35.637146 C142.35923483 31.91303989 144.07012658 28.19050489 145.78491211 24.46972656 C149.02377326 17.42638999 152.15815331 10.35947728 155.0612793 3.16894531 C156 1 156 1 157 0 C158.44289787 -0.09295815 159.89029785 -0.11746513 161.33618164 -0.11352539 C162.2570607 -0.11344986 163.17793976 -0.11337433 164.12672424 -0.11329651 C165.12775681 -0.10813522 166.12878937 -0.10297394 167.16015625 -0.09765625 C168.68956093 -0.09553383 168.68956093 -0.09553383 170.24986267 -0.09336853 C173.52077107 -0.08775097 176.79161213 -0.0751955 180.0625 -0.0625 C182.27408756 -0.05748726 184.48567618 -0.05292396 186.69726562 -0.04882812 C192.13153357 -0.03777584 197.56576197 -0.02102063 203 0 C203 1.65 203 3.3 203 5 C202.20335937 5.02578125 201.40671875 5.0515625 200.5859375 5.078125 C192.0696878 5.50398669 192.0696878 5.50398669 185 10 C181.95964216 14.29843695 180.87741424 17.82578356 180.85282898 23.04568481 C180.84567368 24.08857162 180.83851837 25.13145844 180.83114624 26.20594788 C180.82845734 27.34986496 180.82576843 28.49378204 180.82299805 29.67236328 C180.81314125 31.48012993 180.81314125 31.48012993 180.80308533 33.32441711 C180.78333389 37.32305143 180.77168183 41.32164559 180.76171875 45.3203125 C180.75766996 46.69918716 180.753553 48.07806163 180.74936867 49.45693588 C180.73031766 55.93838924 180.71608876 62.41983125 180.7077567 68.90130723 C180.69799658 76.3695081 180.6717091 83.83741161 180.63125581 91.30550778 C180.60102651 97.08570604 180.58628123 102.86581942 180.58297569 108.64609516 C180.58063213 112.09440937 180.57176389 115.5424059 180.54651451 118.99063492 C180.51875314 122.84427483 180.52308573 126.69752865 180.5300293 130.55126953 C180.51721924 131.68304123 180.50440918 132.81481293 180.49121094 133.98088074 C180.53537443 140.72136911 181.35824139 146.21162153 185 152 C188.60150444 155.08095086 192.17939138 155.579112 196.8125 156.1875 C197.97394531 156.34605469 199.13539063 156.50460937 200.33203125 156.66796875 C201.21246094 156.77753906 202.09289062 156.88710938 203 157 C203 158.65 203 160.3 203 162 C180.56 162 158.12 162 135 162 C135 160.35 135 158.7 135 157 C135.73605469 156.89042969 136.47210937 156.78085937 137.23046875 156.66796875 C144.62873108 155.62108176 144.62873108 155.62108176 151 152 C153.76274148 147.95455711 155.12546797 145.18708708 155.12025452 140.31771851 C155.12162918 139.33051315 155.12300385 138.3433078 155.12442017 137.32618713 C155.12082489 136.23934128 155.11722961 135.15249542 155.11352539 134.03271484 C155.11374443 132.32052513 155.11374443 132.32052513 155.1139679 130.57374573 C155.11326906 126.78612391 155.10547798 122.99855077 155.09765625 119.2109375 C155.09579197 116.59062731 155.09436811 113.97031677 155.09336853 111.3500061 C155.09025752 105.14872839 155.08204722 98.94746826 155.07201904 92.7461983 C155.06085078 85.68703837 155.05534565 78.62787761 155.05032361 71.56871104 C155.03986443 57.04579828 155.02226942 42.52289939 155 28 C154.7746759 28.56920166 154.54935181 29.13840332 154.31719971 29.72485352 C153.28127923 32.3382421 152.24222535 34.95037421 151.203125 37.5625 C150.84879395 38.45775391 150.49446289 39.35300781 150.12939453 40.27539062 C148.1432128 45.26139165 146.06585245 50.15825267 143.75 55 C140.38827735 62.04433701 137.30932611 69.1945731 134.25 76.375 C130.32489924 85.58684573 126.36048919 94.77874566 122.3125 103.9375 C118.63102498 112.26973989 115.00562441 120.62296333 111.43310547 129.00244141 C106.7161514 140.04261775 101.85292179 151.01908572 97 162 C94.70654297 161.89697266 94.70654297 161.89697266 92 161 C90.25830078 158.27880859 90.25830078 158.27880859 88.6953125 154.6484375 C88.26471024 153.67180649 88.26471024 153.67180649 87.82540894 152.67544556 C86.90719496 150.58263783 86.01562551 148.47967601 85.125 146.375 C84.53434254 145.0122434 83.94191044 143.65025453 83.34765625 142.2890625 C82.45417375 140.24107116 81.56236025 138.19249425 80.67767334 136.14068604 C78.40939856 130.88719493 76.02159037 125.69820117 73.58462524 120.52120972 C69.90580184 112.69746938 66.41127523 104.79223124 62.89453125 96.89453125 C60.25978858 90.99347322 57.5973002 85.11099396 54.85351562 79.25976562 C50.5437159 70.04854761 46.30401728 60.80530369 42.0625 51.5625 C41.27543298 49.84828784 40.48832384 48.13409503 39.70117188 46.41992188 C37.8002974 42.28016987 35.89998665 38.14015955 34 34 C33.92983206 48.35167118 33.87717339 62.70331566 33.84456348 77.05512333 C33.82891186 83.71935273 33.80768247 90.38344442 33.77368164 97.04760742 C33.74107077 103.47963532 33.72314318 109.91155235 33.71536827 116.34365654 C33.70982792 118.79683617 33.69900901 121.25000977 33.68280983 123.70314217 C33.66101315 127.14085091 33.65803409 130.57810234 33.65942383 134.01586914 C33.648638 135.02863419 33.63785217 136.04139923 33.6267395 137.08485413 C33.6518612 142.83284598 34.19781805 146.93827367 37 152 C40.52534608 154.86471905 43.86986372 155.55283767 48.3125 156.1875 C49.38113281 156.34605469 50.44976563 156.50460937 51.55078125 156.66796875 C52.35902344 156.77753906 53.16726563 156.88710938 54 157 C54 158.65 54 160.3 54 162 C36.51 162 19.02 162 1 162 C1 160.35 1 158.7 1 157 C1.79664063 156.91363281 2.59328125 156.82726562 3.4140625 156.73828125 C12.35132057 155.57775755 12.35132057 155.57775755 19 150 C21.21365293 143.29768272 21.29033133 136.94250904 21.2746582 129.92773438 C21.27976913 128.73972733 21.28488007 127.55172028 21.29014587 126.32771301 C21.30161412 123.09010122 21.3041237 119.85264929 21.30158257 116.61502266 C21.30050775 113.90387277 21.30540906 111.19274612 21.310188 108.48160124 C21.32125485 102.08260555 21.32173606 95.68366858 21.31567383 89.28466797 C21.30963127 82.69988932 21.32195856 76.11532419 21.3432439 69.53058195 C21.36089552 63.85984045 21.3668558 58.18916671 21.36360615 52.51839876 C21.36179935 49.13901228 21.36436914 45.75977827 21.37832069 42.38041687 C21.39067692 38.61086627 21.383898 34.84180852 21.37231445 31.07226562 C21.37995819 29.96345535 21.38760193 28.85464508 21.39547729 27.7122345 C21.35290947 21.43490085 20.73842382 16.68438328 18 11 C14.02753491 7.22131369 11.24580932 5.91949571 5.875 5.4375 C4.96492187 5.35371094 4.05484375 5.26992188 3.1171875 5.18359375 C2.41851563 5.12300781 1.71984375 5.06242187 1 5 C0.67 3.35 0.34 1.7 0 0 Z " fill="#040404" transform="translate(606,490)"/>
<path d="M0 0 C2.00781177 0.98422146 4.00892752 1.98234073 6 3 C9.12638771 2.73202391 10.30245884 1.79836077 13 0 C17.71218117 -0.46349323 20.04345429 -0.46924884 24.3125 1.625 C28.07856488 4.95315036 29.58273489 7.91367447 30.5625 12.8125 C28.86639924 22.42373764 20.16627204 29.0983642 13 35 C12.01 35.495 12.01 35.495 11 36 C11.78503906 36.18175781 12.57007813 36.36351562 13.37890625 36.55078125 C19.19425571 37.94218388 24.60004859 39.42275046 30 42 C30 42.66 30 43.32 30 44 C30.88042969 43.57847656 31.76085937 43.15695313 32.66796875 42.72265625 C33.82941406 42.17480469 34.99085938 41.62695312 36.1875 41.0625 C37.33605469 40.51722656 38.48460937 39.97195312 39.66796875 39.41015625 C49.24299959 35.35788646 62.93128087 35.39778286 72.73828125 38.9609375 C85.94571495 45.02860134 95.61347422 53.59655833 101.32421875 67.140625 C105.95519999 80.59484418 104.73971269 93.16286612 99 106 C92.62412393 117.50767876 82.49113665 125.84816713 70 130 C58.51058805 132.09142155 46.56036306 132.54317908 36 127 C35.34 126.34 34.68 125.68 34 125 C39.27516863 119.14812483 39.27516863 119.14812483 43.046875 118.82421875 C44.52903149 119.03247797 46.00599554 119.28003926 47.4765625 119.55859375 C58.53153412 121.49235813 68.15226051 119.79898331 77.5390625 113.8203125 C85.14726228 108.19265996 90.16177833 101.35296434 92 92 C93.01707641 80.20425175 92.01814872 70.82540821 85 61 C84.67 60.01 84.34 59.02 84 58 C82.68747118 57.29325371 81.34721283 56.63815344 80 56 C78.96875 55.195625 77.9375 54.39125 76.875 53.5625 C67.43236301 46.82914282 55.67494037 46.85396818 44.546875 48.515625 C43.70640625 48.67546875 42.8659375 48.8353125 42 49 C43.28041427 52.49203893 44.7885107 55.34563595 46.9375 58.375 C53.73065157 68.39117969 56.63539532 79.65488386 54.53515625 91.65625 C51.16597461 105.53169628 44.5643323 116.46836801 32.7265625 124.42578125 C21.34221322 130.99869352 8.37588973 132.65024068 -4.484375 130.38671875 C-16.88071128 127.02072792 -27.15302554 119.2017091 -33.6875 108.14453125 C-39.85201318 96.45270217 -42.39422735 83.88986554 -38.875 70.8125 C-33.92449137 56.83189693 -25.3988893 46.5519726 -12 40 C-7.06007822 37.96825798 -2.276325 36.82159918 3 36 C2.11957031 35.29875 1.23914063 34.5975 0.33203125 33.875 C-14.06138305 22.21453859 -14.06138305 22.21453859 -15.45703125 14.4609375 C-15.74821015 9.86979107 -15.55106955 7.71490104 -12.6875 4 C-8.02887236 0.53311431 -5.86553736 -0.49707944 0 0 Z " fill="#030202" transform="translate(474,189)"/>
<path d="M0 0 C29.1843186 25.58067463 46.96690277 60.4564831 52.46142578 98.66455078 C52.63198486 99.56431641 52.80254395 100.46408203 52.97827148 101.39111328 C53.52974764 105.1274409 53.65943092 108.80252068 53.69970703 112.57080078 C53.70945557 113.32431824 53.7192041 114.07783569 53.72924805 114.85418701 C53.90027988 131.51140472 53.6886313 147.43842584 49.46142578 163.66455078 C49.27418945 164.42026367 49.08695313 165.17597656 48.89404297 165.95458984 C46.19388716 176.69458783 42.16943581 186.66002947 37.46142578 196.66455078 C37.02830078 197.60041016 36.59517578 198.53626953 36.14892578 199.50048828 C31.43125526 209.33931431 25.36117466 218.23902574 18.46142578 226.66455078 C17.64802734 227.67517578 16.83462891 228.68580078 15.99658203 229.72705078 C-3.11613245 253.16196413 -27.15683695 268.02120272 -55.53857422 277.66455078 C-56.47314453 277.99326172 -57.40771484 278.32197266 -58.37060547 278.66064453 C-60.74503309 279.44133368 -63.10893289 280.077449 -65.53857422 280.66455078 C-67.18212891 281.08027344 -67.18212891 281.08027344 -68.85888672 281.50439453 C-105.52872634 289.82579075 -143.89322284 280.89499249 -175.53857422 261.66455078 C-195.54572679 248.65387017 -211.66644598 231.64634191 -224.53857422 211.66455078 C-224.91401367 211.08189453 -225.28945313 210.49923828 -225.67626953 209.89892578 C-237.3977321 191.36970702 -243.8867642 170.12163568 -247.53857422 148.66455078 C-247.74611328 147.64232422 -247.95365234 146.62009766 -248.16748047 145.56689453 C-255.50635205 106.61442232 -243.68041806 63.02113908 -222.06835938 30.44873047 C-198.33103266 -3.82894105 -163.25047382 -28.66763235 -121.85107422 -36.33544922 C-77.21043288 -43.25985382 -33.72408533 -29.27177829 0 0 Z M-202.76660156 19.70605469 C-230.78664863 50.67558039 -242.14321225 92.6828417 -240.53857422 133.66455078 C-238.48306494 170.89748162 -222.44956014 206.14657251 -196.53857422 232.66455078 C-195.75095703 233.51404297 -194.96333984 234.36353516 -194.15185547 235.23876953 C-173.31041058 257.18257184 -141.22066801 273.46934965 -110.69433594 274.78735352 C-69.06274689 275.81271605 -33.00441766 265.41890418 -2.24951172 236.33251953 C-1.35490234 235.45208984 -0.46029297 234.57166016 0.46142578 233.66455078 C1.00887451 233.14046631 1.55632324 232.61638184 2.12036133 232.07641602 C6.52217638 227.79989789 10.33295775 223.24993661 14.02392578 218.35205078 C14.59401367 217.59641846 15.16410156 216.84078613 15.75146484 216.06225586 C27.11279629 200.85773683 35.57262519 183.04215884 40.46142578 164.66455078 C40.75339844 163.61460937 40.75339844 163.61460937 41.05126953 162.54345703 C44.59050876 149.19613001 44.88119337 135.75913736 44.96142578 122.03955078 C44.9718692 121.18194153 44.98231262 120.32433228 44.99307251 119.44073486 C45.14917515 103.0014578 42.97483115 86.89562618 37.21142578 71.41455078 C36.91550537 70.59720459 36.61958496 69.7798584 36.31469727 68.93774414 C28.32901482 47.49459213 15.96821071 29.39190554 0.46142578 12.66455078 C-0.10447266 12.02130859 -0.67037109 11.37806641 -1.25341797 10.71533203 C-20.56292491 -10.17046119 -49.74851337 -23.32132932 -77.53857422 -27.33544922 C-78.56080078 -27.51720703 -79.58302734 -27.69896484 -80.63623047 -27.88623047 C-128.41835052 -33.38667472 -170.27888752 -14.83173153 -202.76660156 19.70605469 Z " fill="#070707" transform="translate(605.53857421875,139.33544921875)"/>
<path d="M0 0 C43.23 0 86.46 0 131 0 C133 32 133 32 133 37 C131.35 37 129.7 37 128 37 C127.78085937 36.16597656 127.56171875 35.33195313 127.3359375 34.47265625 C124.25502326 22.66034449 124.25502326 22.66034449 116.28883362 13.95542908 C109.52330536 10.591981 103.43669255 10.44735724 95.9765625 10.5390625 C94.75343353 10.53997894 93.53030457 10.54089539 92.27011108 10.5418396 C89.70005381 10.54785405 87.13000282 10.5635345 84.56005859 10.58837891 C80.61660127 10.62507816 76.67407969 10.62939657 72.73046875 10.62890625 C70.22915851 10.638731 67.72785464 10.65038519 65.2265625 10.6640625 C64.04534821 10.66628815 62.86413391 10.66851379 61.64712524 10.67080688 C60.55523895 10.68356659 59.46335266 10.69632629 58.33837891 10.70947266 C56.89683945 10.72090805 56.89683945 10.72090805 55.42617798 10.73257446 C52.74118039 10.84017956 52.74118039 10.84017956 50 13 C49.52224886 15.54138301 49.52224886 15.54138301 49.56762695 18.55126953 C49.54783279 19.71232208 49.52803864 20.87337463 49.50764465 22.0696106 C49.50125473 23.32796722 49.49486481 24.58632385 49.48828125 25.8828125 C49.47033005 27.16735321 49.45237885 28.45189392 49.43388367 29.77536011 C49.38631108 33.19149661 49.35654927 36.60756676 49.33044434 40.02392578 C49.30067498 43.50957349 49.25413238 46.99499231 49.20898438 50.48046875 C49.1228692 57.32018228 49.05556074 64.15997195 49 71 C55.12043602 70.98052033 61.23944613 70.92862034 67.359375 70.84741211 C69.43872294 70.82429747 71.51818687 70.80985182 73.59765625 70.80444336 C76.59708394 70.79510606 79.59470362 70.75401064 82.59375 70.70703125 C83.51490601 70.7109639 84.43606201 70.71489655 85.38513184 70.71894836 C91.66586206 70.57880097 96.22395985 69.22451149 101 65 C103.87236708 60.02123039 104.92083749 54.59894905 106 49 C107.32 49 108.64 49 110 49 C110 67.48 110 85.96 110 105 C108.68 105 107.36 105 106 105 C105.76216797 103.58847656 105.76216797 103.58847656 105.51953125 102.1484375 C103.91227659 92.40004008 103.91227659 92.40004008 98 85 C91.85959895 82.21293644 86.72692575 81.537044 80.03125 81.48828125 C79.11033569 81.47033005 78.18942139 81.45237885 77.24060059 81.43388367 C74.3271123 81.38011985 71.4137846 81.34599455 68.5 81.3125 C66.51299865 81.27929693 64.5260184 81.24480454 62.5390625 81.20898438 C57.69282486 81.12441316 52.84663204 81.05744109 48 81 C48.08468807 88.55464024 48.17967968 96.1090928 48.28752708 103.66343689 C48.33729733 107.17190664 48.38362753 110.68034906 48.421875 114.18896484 C48.46608522 118.23032879 48.52565495 122.2713436 48.5859375 126.3125 C48.59748871 127.5617627 48.60903992 128.81102539 48.62094116 130.09814453 C48.7420393 141.54368655 48.7420393 141.54368655 53 152 C58.75358619 156.64712731 65.91107421 156.76370247 73 157 C73 158.65 73 160.3 73 162 C48.91 162 24.82 162 0 162 C0 160.35 0 158.7 0 157 C0.94101563 156.90203125 1.88203125 156.8040625 2.8515625 156.703125 C12.32506846 155.88848532 12.32506846 155.88848532 20 151 C23.25206249 144.20906164 23.42837328 138.21159771 23.38818359 130.76000977 C23.39606903 128.95114792 23.39606903 128.95114792 23.40411377 127.10574341 C23.41500951 123.81840366 23.41251951 120.53142989 23.40297651 117.24409604 C23.39533935 113.79032242 23.40243688 110.3365719 23.40713501 106.88279724 C23.41258156 101.08352318 23.40543077 95.28436401 23.39111328 89.48510742 C23.37479651 82.79922758 23.38007249 76.11362238 23.3965925 69.42774922 C23.41024812 63.66866012 23.41210697 57.90965324 23.40427649 52.15055317 C23.39962128 48.71916932 23.39891516 45.28791414 23.40888596 41.85653877 C23.41653094 38.02730047 23.40485214 34.19858433 23.38818359 30.36938477 C23.39425629 29.24546829 23.40032898 28.12155182 23.40658569 26.96357727 C23.35662236 20.74682955 23.110544 14.55061323 20 9 C17.05179416 7.37692014 17.05179416 7.37692014 14 7 C13.34 6.67 12.68 6.34 12 6 C9.9625237 5.77141886 7.91959697 5.58975722 5.875 5.4375 C4.23144531 5.31181641 4.23144531 5.31181641 2.5546875 5.18359375 C1.71164063 5.12300781 0.86859375 5.06242187 0 5 C0 3.35 0 1.7 0 0 Z " fill="#030303" transform="translate(204,490)"/>
<path d="M0 0 C23.43 0 46.86 0 71 0 C71 1.65 71 3.3 71 5 C70.14277344 5.02578125 69.28554688 5.0515625 68.40234375 5.078125 C58.97046775 5.48989347 58.97046775 5.48989347 51 10 C47.39959511 16.26770456 47.57410479 22.16407739 47.61181641 29.26586914 C47.60393097 31.09637062 47.60393097 31.09637062 47.59588623 32.96385193 C47.58497907 36.29451071 47.58748677 39.62460709 47.59702349 42.95523381 C47.60464819 46.44912138 47.59756686 49.94298583 47.59286499 53.43687439 C47.58741631 59.30179125 47.5945764 65.16659455 47.60888672 71.03149414 C47.62521923 77.80318514 47.61991694 84.57460523 47.6034075 91.34628969 C47.58977633 97.17155299 47.58788069 102.99673493 47.59572351 108.82200903 C47.60039012 112.29634791 47.60105275 115.7705596 47.59111404 119.24489021 C47.58080751 123.11787507 47.59510844 126.99055841 47.61181641 130.86352539 C47.60574371 132.00914948 47.59967102 133.15477356 47.59341431 134.33511353 C47.63801315 139.91461509 47.67461533 144.26861357 51 149 C54.10852765 151.07235177 54.7881455 151.25143485 58.31274414 151.25878906 C59.61538963 151.26824554 59.61538963 151.26824554 60.9443512 151.27789307 C61.88181686 151.2738446 62.81928253 151.26979614 63.78515625 151.265625 C65.24144691 151.26849518 65.24144691 151.26849518 66.72715759 151.27142334 C68.78579975 151.27278536 70.84445048 151.26908775 72.90307617 151.26074219 C76.02608052 151.25012383 79.14849892 151.26059486 82.27148438 151.2734375 C84.27604292 151.27211433 86.28060111 151.26954868 88.28515625 151.265625 C89.67010033 151.27169769 89.67010033 151.27169769 91.08302307 151.27789307 C103.11075643 151.19274193 114.38825347 148.56376079 124.015625 141.03515625 C129.73880061 135.16552142 133.43249953 127.28867787 137 120 C138.98 120 140.96 120 143 120 C139.59010486 131.53265347 136.01612058 143.01617981 132.25 154.4375 C131.84265625 155.67371094 131.4353125 156.90992188 131.015625 158.18359375 C130 161 130 161 129 162 C127.32975331 162.09614133 125.65541724 162.12187722 123.98240662 162.12025452 C122.89560608 162.12162918 121.80880554 162.12300385 120.68907166 162.12442017 C119.48642166 162.12082489 118.28377167 162.11722961 117.04467773 162.11352539 C115.78632111 162.11367142 114.52796448 162.11381744 113.23147583 162.1139679 C109.77088747 162.11425585 106.31033348 162.10835949 102.84975314 162.10139394 C99.23691909 162.09516003 95.62408433 162.09455657 92.01124573 162.09336853 C85.16536492 162.09025532 78.3195 162.08204208 71.4736262 162.07201904 C63.68173411 162.06085757 55.88984127 162.05534737 48.09794319 162.05032361 C32.06528614 162.03985946 16.0326451 162.02226023 0 162 C0 160.35 0 158.7 0 157 C0.95261719 156.82984375 1.90523438 156.6596875 2.88671875 156.484375 C4.14097656 156.24203125 5.39523437 155.9996875 6.6875 155.75 C7.92886719 155.51796875 9.17023438 155.2859375 10.44921875 155.046875 C14.27872928 153.91782239 16.24916647 152.87474495 19 150 C21.76074369 144.15030916 21.28808136 137.97377312 21.2746582 131.64819336 C21.27976913 130.40689163 21.28488007 129.1655899 21.29014587 127.88667297 C21.30164113 124.49415794 21.30411943 121.10188771 21.30158257 117.70937037 C21.30051053 114.873772 21.30540196 112.03819601 21.310188 109.20260245 C21.3212679 102.51322498 21.32172848 95.82390368 21.31567383 89.13452148 C21.30962809 82.23844429 21.32196361 75.34257082 21.3432439 68.44652838 C21.36086273 62.51855195 21.36686101 56.59064037 21.36360615 50.66263872 C21.36179434 47.12514834 21.36441963 43.58780346 21.37832069 40.05033684 C21.39323618 36.10761387 21.38392643 32.16515053 21.37231445 28.22241211 C21.37995819 27.05292023 21.38760193 25.88342834 21.39547729 24.67849731 C21.38495583 23.06567619 21.38495583 23.06567619 21.3742218 21.42027283 C21.37447341 20.02300162 21.37447341 20.02300162 21.37473011 18.59750271 C20.92681294 15.49269201 19.68718377 13.61226198 18 11 C18 10.34 18 9.68 18 9 C11.95942424 6.72942897 6.43681228 5.51085812 0 5 C0 3.35 0 1.7 0 0 Z " fill="#030303" transform="translate(450,490)"/>
<path d="M0 0 C24.09 0 48.18 0 73 0 C73 1.65 73 3.3 73 5 C72.14277344 5.02578125 71.28554688 5.0515625 70.40234375 5.078125 C60.97046775 5.48989347 60.97046775 5.48989347 53 10 C49.38399109 16.28450284 49.57425242 22.21968414 49.61181641 29.34179688 C49.60655945 30.57027847 49.60130249 31.79876007 49.59588623 33.06446838 C49.58497798 36.41791947 49.58748789 39.77081207 49.59702349 43.12423134 C49.604649 46.64300887 49.59756648 50.16176347 49.59286499 53.68054199 C49.58741582 59.58834081 49.59457694 65.49602691 49.60888672 71.40380859 C49.6252117 78.22205817 49.6199226 85.04003856 49.6034075 91.85828161 C49.58976864 97.72517361 49.58788467 103.59198484 49.59572351 109.45888758 C49.60038688 112.95729131 49.60106189 116.45556875 49.59111404 119.95396423 C49.5807937 123.85548262 49.59512098 127.75670246 49.61181641 131.65820312 C49.60574371 132.80958267 49.59967102 133.96096222 49.59341431 135.14723206 C49.64136251 141.2012355 49.9888826 145.69162248 53 151 C57.50381524 155.27862448 61.11895842 156.10572805 67.1875 156.5625 C68.27417969 156.64628906 69.36085938 156.73007812 70.48046875 156.81640625 C71.31191406 156.87699219 72.14335937 156.93757812 73 157 C73 158.65 73 160.3 73 162 C48.91 162 24.82 162 0 162 C0 160.35 0 158.7 0 157 C0.94101562 156.90203125 1.88203125 156.8040625 2.8515625 156.703125 C12.2280194 155.76194812 12.2280194 155.76194812 20 151 C24.12034405 144.81948392 23.15400966 137.22802483 23.16113281 130.04711914 C23.16609772 128.84804428 23.17106262 127.64896942 23.17617798 126.41355896 C23.18824774 123.13668346 23.19573396 119.85984355 23.20018864 116.58294988 C23.20312827 114.53287628 23.20723462 112.48280817 23.21169281 110.43273735 C23.22534814 104.01002787 23.23502563 97.58733104 23.2388947 91.16460806 C23.24337742 83.76552164 23.26094334 76.36661976 23.2898953 68.96758944 C23.3115379 63.23661711 23.32160027 57.50569664 23.32293582 51.77468389 C23.32398157 48.35672129 23.32984056 44.93893263 23.34775543 41.52101326 C23.36481039 37.70795813 23.36293696 33.89535319 23.35644531 30.08227539 C23.3656601 28.95737701 23.37487488 27.83247864 23.3843689 26.67349243 C23.34817228 19.88603786 22.84080004 14.74469096 18.625 9.1875 C14.74603209 6.3528696 10.35121382 5.59249443 5.6875 4.875 C4.08455078 4.62363281 4.08455078 4.62363281 2.44921875 4.3671875 C1.64097656 4.24601562 0.83273437 4.12484375 0 4 C0 2.68 0 1.36 0 0 Z " fill="#050504" transform="translate(355,490)"/>
<path d="M0 0 C2.00781177 0.98422146 4.00892752 1.98234073 6 3 C9.12638771 2.73202391 10.30245884 1.79836077 13 0 C17.71218117 -0.46349323 20.04345429 -0.46924884 24.3125 1.625 C28.07856488 4.95315036 29.58273489 7.91367447 30.5625 12.8125 C28.86639924 22.42373764 20.16627204 29.0983642 13 35 C12.01 35.495 12.01 35.495 11 36 C11.79664063 36.18175781 12.59328125 36.36351562 13.4140625 36.55078125 C18.97591755 37.87019942 24.04724965 39.11089563 29 42 C26.78071806 44.90802461 25.07030857 46.95312762 22 49 C20.20564198 48.79295869 18.41204301 48.57530044 16.625 48.3125 C4.69790659 46.89260793 -5.27452654 47.69517489 -15.34375 54.609375 C-22.88689224 60.74521458 -27.1986607 68.47260388 -29 78 C-30.02101921 89.43860583 -27.46452465 99.51275786 -20.375 108.625 C-14.55438856 115.08085583 -6.15711205 119.50223161 2.48046875 120.3359375 C14.4179635 120.46172775 24.14616772 118.38681695 33 110 C40.88089433 101.68026237 43.60110315 92.07968884 43.47705078 80.78564453 C43.16775581 73.50061208 40.80256427 68.54924475 36.75 62.6875 C35 60 35 60 35 56 C38 53.75 38 53.75 41 52 C48.24762758 57.05213282 52.31698743 66.28309624 54.4375 74.75 C56.81843821 89.08853899 52.58706177 102.07249095 44.62890625 114.06640625 C37.13095756 123.56097584 25.79668515 129.11323571 14 131 C0.11418495 131.9988617 -11.42617344 129.92077162 -22.56640625 121.125 C-31.74281983 113.11220869 -38.7684653 102.37399151 -40 90 C-40.91998658 75.79875258 -38.14616684 63.70682396 -28.9609375 52.515625 C-20.00569948 43.08572772 -9.74844112 37.9851144 3 36 C2.11957031 35.29875 1.23914063 34.5975 0.33203125 33.875 C-14.06138305 22.21453859 -14.06138305 22.21453859 -15.45703125 14.4609375 C-15.74821015 9.86979107 -15.55106955 7.71490104 -12.6875 4 C-8.02887236 0.53311431 -5.86553736 -0.49707944 0 0 Z " fill="#EDEBE2" transform="translate(474,189)"/>
<path d="M0 0 C10.15021204 8.15537268 15.57779082 19.83313533 17.25390625 32.59375 C17.83872127 45.04415395 13.85221156 57.33258235 6.06640625 67.04296875 C-3.44479891 77.2883722 -13.99652507 82.8035652 -27.95703125 83.6796875 C-36.3850536 83.83792112 -43.4978637 83.4633759 -51.16015625 79.44140625 C-51.82015625 78.78140625 -52.48015625 78.12140625 -53.16015625 77.44140625 C-47.88498762 71.58953108 -47.88498762 71.58953108 -44.11328125 71.265625 C-42.63112476 71.47388422 -41.15416071 71.72144551 -39.68359375 72 C-28.62862213 73.93376438 -19.00789574 72.24038956 -9.62109375 66.26171875 C-2.01289397 60.63406621 3.00162208 53.79437059 4.83984375 44.44140625 C5.85692016 32.645658 4.85799247 23.26681446 -2.16015625 13.44140625 C-2.65515625 11.95640625 -2.65515625 11.95640625 -3.16015625 10.44140625 C-4.47268507 9.73465996 -5.81294342 9.07955969 -7.16015625 8.44140625 C-8.19140625 7.63703125 -9.22265625 6.83265625 -10.28515625 6.00390625 C-18.87495316 -0.12130758 -28.9109874 -0.54260241 -39.16015625 0.44140625 C-49.07344822 2.80298455 -56.39450376 8.53381513 -61.8359375 17 C-65.44111883 23.64672073 -66.74202217 28.58408625 -66.72265625 36.12890625 C-66.72241455 37.00796631 -66.72217285 37.88702637 -66.72192383 38.79272461 C-66.50293994 47.15329903 -64.3236814 54.00988408 -58.4609375 60.25 C-58.03167969 60.64316406 -57.60242188 61.03632813 -57.16015625 61.44140625 C-58.60487971 65.25022264 -60.48618696 66.73883511 -64.16015625 68.44140625 C-68.03052243 67.15128419 -68.60194075 65.61752978 -70.72265625 62.19140625 C-71.62177734 60.76054687 -71.62177734 60.76054687 -72.5390625 59.30078125 C-78.28940459 49.15800918 -79.73955727 37.51810367 -77.5078125 26.10546875 C-74.12860439 13.89390983 -67.57011101 3.0210007 -56.47119141 -3.56005859 C-37.05398739 -14.3219646 -17.8997937 -12.91504103 0 0 Z " fill="#EBE9E0" transform="translate(561.16015625,236.55859375)"/>
<path d="M0 0 C4.07095734 -0.07513835 8.14163647 -0.12905913 12.21313477 -0.16479492 C13.59308926 -0.17971942 14.97299772 -0.20006661 16.3527832 -0.22631836 C26.77739063 -0.41943677 36.92458219 -0.5092335 45.4375 6.1875 C50.19660558 10.78081706 53.6814011 16.91948337 54.203125 23.6015625 C54.35926572 33.67263902 53.00441366 40.79059183 45.96875 48.2734375 C39.58248955 53.87408655 32.89367801 55.13053047 24.609375 55.09765625 C23.90476135 55.0962413 23.20014771 55.09482635 22.47418213 55.09336853 C20.23274416 55.08778933 17.99140757 55.07524073 15.75 55.0625 C14.22656395 55.05748231 12.70312632 55.05291987 11.1796875 55.04882812 C7.45309228 55.03782674 3.72655604 55.02057646 0 55 C2 54 4 53 6 52 C6.33 35.83 6.66 19.66 7 3 C4.69 2.67 2.38 2.34 0 2 C0 1.34 0 0.68 0 0 Z " fill="#F0EEE4" transform="translate(629,702)"/>
<path d="M0 0 C4.41653692 -0.08834886 8.83284148 -0.14083987 13.25 -0.1875 C15.10238281 -0.22520508 15.10238281 -0.22520508 16.9921875 -0.26367188 C27.53847381 -0.34693203 37.98566163 0.30558415 46.37890625 7.3203125 C52.62278101 13.78986948 53.35887977 20.90854842 53.28125 29.53515625 C52.74498367 36.14165951 50.78991076 41.72632958 46.6875 46.9375 C39.27679789 52.62478301 32.2734053 55.27702494 22.75390625 55.1953125 C22.09792953 55.1924826 21.44195282 55.18965271 20.76609802 55.18673706 C18.69803591 55.17565984 16.63042827 55.15058063 14.5625 55.125 C13.14909485 55.11495402 11.73568283 55.10583102 10.32226562 55.09765625 C6.88136606 55.07576184 3.44072748 55.04132051 0 55 C2 53 2 53 6 51 C6 35.49 6 19.98 6 4 C4.02 3.34 2.04 2.68 0 2 C0 1.34 0 0.68 0 0 Z " fill="#EFEDE3" transform="translate(308,702)"/>
<path d="M0 0 C6.93 0 13.86 0 21 0 C21 0.66 21 1.32 21 2 C19.35 2.33 17.7 2.66 16 3 C16.43046205 10.98658826 18.28173359 18.23330344 20.5625 25.875 C21.21436128 28.07933715 21.86169977 30.28501822 22.50390625 32.4921875 C22.79080322 33.45495605 23.0777002 34.41772461 23.37329102 35.40966797 C24 38 24 38 24 42 C24.66 42 25.32 42 26 42 C26.2165625 40.99453125 26.433125 39.9890625 26.65625 38.953125 C28.20889295 32.74802026 30.51986675 26.78836553 32.74072266 20.79882812 C33.50271023 18.74268674 34.25767398 16.68406579 35.01171875 14.625 C39.0393487 3.68702523 39.0393487 3.68702523 41 0 C44 1 44 1 44.97973633 2.87915039 C45.40162231 4.10106079 45.40162231 4.10106079 45.83203125 5.34765625 C46.15300781 6.25604248 46.47398437 7.16442871 46.8046875 8.1003418 C47.13726562 9.077854 47.46984375 10.05536621 47.8125 11.0625 C48.51603816 13.07062415 49.22047298 15.07843438 49.92578125 17.0859375 C50.44712646 18.58398926 50.44712646 18.58398926 50.97900391 20.11230469 C52.64771914 24.8319517 54.44875814 29.50077159 56.27270508 34.16235352 C57.3393302 36.94844867 58 38.98399193 58 42 C58.66 42 59.32 42 60 42 C60.0928125 40.9171875 60.185625 39.834375 60.28125 38.71875 C61.11110395 32.07991841 63.42442461 25.83039609 65.47265625 19.48828125 C67.22035237 13.95269144 68.50382762 8.7886778 69 3 C67.02 2.67 65.04 2.34 63 2 C63 1.34 63 0.68 63 0 C68.94 0 74.88 0 81 0 C81 0.66 81 1.32 81 2 C79.8553125 2.27457031 79.8553125 2.27457031 78.6875 2.5546875 C74.95400816 4.56252468 74.2575353 7.29699408 73 11.125 C72.74927734 11.84002686 72.49855469 12.55505371 72.24023438 13.29174805 C71.46847597 15.52032256 70.72868921 17.75700353 70 20 C69.7834375 20.66435059 69.566875 21.32870117 69.34375 22.01318359 C68.08069607 25.92569049 66.87324332 29.85387081 65.67822266 33.78759766 C64.376473 38.03398187 63.02861502 42.26591958 61.6875 46.5 C61.17051608 48.1353987 60.65358393 49.77081377 60.13671875 51.40625 C59.76160156 52.5921875 59.38648438 53.778125 59 55 C57.68 55 56.36 55 55 55 C54.78907715 54.38705078 54.5781543 53.77410156 54.36083984 53.14257812 C48.75231859 36.84561612 48.75231859 36.84561612 42.72802734 20.69921875 C41 16.20416794 41 16.20416794 41 14 C40.34 14 39.68 14 39 14 C38.84241211 14.98770386 38.84241211 14.98770386 38.68164062 15.99536133 C37.81459179 19.81727034 36.47116951 23.41437411 35.09375 27.07421875 C34.80898804 27.83926224 34.52422607 28.60430573 34.23083496 29.39253235 C33.6307479 31.00266113 33.02886449 32.61212142 32.42529297 34.22094727 C31.49973797 36.68819851 30.57947023 39.15737048 29.66015625 41.62695312 C29.07582608 43.19282228 28.49120091 44.75858138 27.90625 46.32421875 C27.63018921 47.06379318 27.35412842 47.80336761 27.06970215 48.56535339 C25.11763914 53.76472172 25.11763914 53.76472172 24 56 C23.01 56 22.02 56 21 56 C20.78384033 55.23034912 20.56768066 54.46069824 20.3449707 53.66772461 C15.06467029 34.68760767 15.06467029 34.68760767 9.01171875 15.9453125 C8.35748939 14.04072202 7.75210926 12.11833933 7.20703125 10.1796875 C5.95359768 5.44863792 5.95359768 5.44863792 2.3125 2.4375 C1.549375 2.293125 0.78625 2.14875 0 2 C0 1.34 0 0.68 0 0 Z " fill="#0C0C0B" transform="translate(164,702)"/>
<path d="M0 0 C4.03426587 -0.10051836 8.06802545 -0.17222514 12.10327148 -0.21972656 C13.4696119 -0.23957267 14.83587059 -0.26665914 16.2019043 -0.30175781 C26.97902243 -0.57128486 38.77673922 -0.34162288 47.125 7.375 C53.07368109 14.25132195 54.37424999 20.99202858 54.27734375 29.83203125 C53.58678333 37.71998195 50.01761594 44.82237164 44 50 C37.44812918 54.22203071 31.47613329 55.12953141 23.73046875 55.09765625 C23.04946609 55.0962413 22.36846344 55.09482635 21.66682434 55.09336853 C19.50700353 55.08780298 17.34728911 55.07525703 15.1875 55.0625 C13.71679838 55.05748054 12.24609512 55.05291841 10.77539062 55.04882812 C7.1835596 55.03784488 3.5917902 55.02060422 0 55 C3 53 3 53 6 52 C6.33 35.83 6.66 19.66 7 3 C4.69 2.67 2.38 2.34 0 2 C0 1.34 0 0.68 0 0 Z M15 4 C14.89678584 5.39595301 14.86150604 6.79703018 14.85473633 8.19677734 C14.84835648 9.08795258 14.84197662 9.97912781 14.83540344 10.89730835 C14.83429062 11.86705597 14.8331778 12.83680359 14.83203125 13.8359375 C14.82870285 14.82622955 14.82537445 15.81652161 14.82194519 16.83682251 C14.81687112 18.93678318 14.81453701 21.03675195 14.81469727 23.13671875 C14.81251404 26.35430179 14.79437233 29.57154035 14.77539062 32.7890625 C14.77245619 34.82551966 14.77047173 36.86197845 14.76953125 38.8984375 C14.76234573 39.86413666 14.75516022 40.82983582 14.74775696 41.82479858 C14.75083359 42.72227814 14.75391022 43.61975769 14.75708008 44.54443359 C14.75565506 45.33417572 14.75423004 46.12391785 14.75276184 46.93759155 C14.87949094 49.30860098 14.87949094 49.30860098 17 52 C24.00504826 53.02042042 31.29492205 52.95865875 37.453125 49.1953125 C42.21953796 45.51217521 43.60550449 41.7316129 45 36 C45.81570994 27.22637566 45.84915801 18.63029275 41 11 C37.09522625 6.37033014 33.02352263 4.00392044 27 3 C20.59131406 2.17573824 20.59131406 2.17573824 15 4 Z " fill="#101010" transform="translate(375,702)"/>
<path d="M0 0 C4.07095734 -0.07513835 8.14163647 -0.12905913 12.21313477 -0.16479492 C13.59308926 -0.17971942 14.97299772 -0.20006661 16.3527832 -0.22631836 C26.77739063 -0.41943677 36.92458219 -0.5092335 45.4375 6.1875 C50.19660558 10.78081706 53.6814011 16.91948337 54.203125 23.6015625 C54.35926572 33.67263902 53.00441366 40.79059183 45.96875 48.2734375 C39.58248955 53.87408655 32.89367801 55.13053047 24.609375 55.09765625 C23.90476135 55.0962413 23.20014771 55.09482635 22.47418213 55.09336853 C20.23274416 55.08778933 17.99140757 55.07524073 15.75 55.0625 C14.22656395 55.05748231 12.70312632 55.05291987 11.1796875 55.04882812 C7.45309228 55.03782674 3.72655604 55.02057646 0 55 C2 54 4 53 6 52 C6.33 35.83 6.66 19.66 7 3 C4.69 2.67 2.38 2.34 0 2 C0 1.34 0 0.68 0 0 Z M15 4 C14.89678584 5.39595301 14.86150604 6.79703018 14.85473633 8.19677734 C14.84835648 9.08795258 14.84197662 9.97912781 14.83540344 10.89730835 C14.83429062 11.86705597 14.8331778 12.83680359 14.83203125 13.8359375 C14.82870285 14.82622955 14.82537445 15.81652161 14.82194519 16.83682251 C14.81687112 18.93678318 14.81453701 21.03675195 14.81469727 23.13671875 C14.81251404 26.35430179 14.79437233 29.57154035 14.77539062 32.7890625 C14.77245619 34.82551966 14.77047173 36.86197845 14.76953125 38.8984375 C14.76234573 39.86413666 14.75516022 40.82983582 14.74775696 41.82479858 C14.75083359 42.72227814 14.75391022 43.61975769 14.75708008 44.54443359 C14.75565506 45.33417572 14.75423004 46.12391785 14.75276184 46.93759155 C14.87949094 49.30860098 14.87949094 49.30860098 17 52 C23.43781131 52.9444222 30.90055384 53.26471952 36.6875 49.9375 C40.29212905 47.19484747 42.08399473 44.06193118 44 40 C44.33 39.34 44.66 38.68 45 38 C45.29123419 34.96554055 45.27798167 31.92181768 45.3125 28.875 C45.35600586 27.62976563 45.35600586 27.62976563 45.40039062 26.359375 C45.47599423 18.93858995 43.33201677 13.99830728 38.8125 8.1875 C34.02654509 4.46509063 20.2016018 -1.2016018 15 4 Z " fill="#0F0F0E" transform="translate(629,702)"/>
<path d="M0 0 C4.41653692 -0.08834886 8.83284148 -0.14083987 13.25 -0.1875 C15.10238281 -0.22520508 15.10238281 -0.22520508 16.9921875 -0.26367188 C27.53847381 -0.34693203 37.98566163 0.30558415 46.37890625 7.3203125 C52.62278101 13.78986948 53.35887977 20.90854842 53.28125 29.53515625 C52.74498367 36.14165951 50.78991076 41.72632958 46.6875 46.9375 C39.27679789 52.62478301 32.2734053 55.27702494 22.75390625 55.1953125 C22.09792953 55.1924826 21.44195282 55.18965271 20.76609802 55.18673706 C18.69803591 55.17565984 16.63042827 55.15058063 14.5625 55.125 C13.14909485 55.11495402 11.73568283 55.10583102 10.32226562 55.09765625 C6.88136606 55.07576184 3.44072748 55.04132051 0 55 C2 53 2 53 6 51 C6 35.49 6 19.98 6 4 C4.02 3.34 2.04 2.68 0 2 C0 1.34 0 0.68 0 0 Z M14 4 C13.89172399 5.35979091 13.85100433 6.72507038 13.83886719 8.08911133 C13.82925964 8.95703812 13.8196521 9.8249649 13.80975342 10.7191925 C13.80550354 11.66392929 13.80125366 12.60866608 13.796875 13.58203125 C13.79117493 14.54775558 13.78547485 15.51347992 13.77960205 16.50846863 C13.77013527 18.55714822 13.76361144 20.60584316 13.75976562 22.65454102 C13.75007315 25.78884542 13.71907088 28.92249068 13.6875 32.05664062 C13.68096897 34.04426693 13.67571889 36.03189793 13.671875 38.01953125 C13.6595282 38.95819534 13.6471814 39.89685944 13.63446045 40.8639679 C13.63007564 45.91539141 13.63007564 45.91539141 15.32397461 50.59277344 C18.00034154 52.83990803 20.39354386 52.49211591 23.8125 52.4375 C25.01519531 52.43621094 26.21789062 52.43492187 27.45703125 52.43359375 C32.70339344 51.79153619 35.93064885 50.04448252 39.6875 46.375 C45.11392898 39.23311927 46.02185698 30.71984619 45 22 C43.40544735 15.82753813 41.10069193 11.00768652 36 7 C30.62916954 3.93095402 26.45596481 2.85859555 20.3125 2.875 C19.33925781 2.87242187 18.36601562 2.86984375 17.36328125 2.8671875 C15.04362389 2.73427038 15.04362389 2.73427038 14 4 Z " fill="#0E0D0D" transform="translate(308,702)"/>
<path d="M0 0 C5.40648033 -1.20065992 10.70867262 -2.04977231 16 0 C21.33685546 4.49638529 24.89800243 10.76987557 28.53125 16.64941406 C30.38439779 19.61518982 32.40587098 22.38739567 34.5 25.1875 C35.0465625 25.94417969 35.593125 26.70085938 36.15625 27.48046875 C38.73930009 31.01027236 41.37561473 34.50081963 44 38 C44 26.78 44 15.56 44 4 C42.02 3.34 40.04 2.68 38 2 C38 1.34 38 0.68 38 0 C43.94 0 49.88 0 56 0 C56 0.66 56 1.32 56 2 C54.02 2.66 52.04 3.32 50 4 C49.67 21.16 49.34 38.32 49 56 C44.72663644 53.86331822 43.11899545 51.74238247 40.5625 47.9375 C39.68100811 46.66484608 38.79676164 45.39409686 37.91015625 44.125 C37.44109863 43.45339844 36.97204102 42.78179688 36.48876953 42.08984375 C33.91235017 38.47322359 31.20761892 34.95639954 28.5 31.4375 C28.00314697 30.79095459 27.50629395 30.14440918 26.99438477 29.47827148 C25.33130878 27.31752354 23.66555174 25.15884015 22 23 C18.7 18.71 15.4 14.42 12 10 C12 23.53 12 37.06 12 51 C14.31 51.99 16.62 52.98 19 54 C19 54.33 19 54.66 19 55 C12.73 55 6.46 55 0 55 C2 53 2 53 4.0625 52.5 C5.0215625 52.2525 5.0215625 52.2525 6 52 C7.18695418 49.62609164 7.12075833 48.19755049 7.11352539 45.55029297 C7.11344986 44.62948944 7.11337433 43.70868591 7.11329651 42.75997925 C7.10813522 41.76410797 7.10297394 40.76823669 7.09765625 39.7421875 C7.09553383 38.21490524 7.09553383 38.21490524 7.09336853 36.6567688 C7.087759 33.39614965 7.07520488 30.13559849 7.0625 26.875 C7.05748623 24.66796974 7.05292311 22.46093841 7.04882812 20.25390625 C7.03778648 14.83591419 7.02103905 9.41796195 7 4 C4.69 3.34 2.38 2.68 0 2 C0 1.34 0 0.68 0 0 Z " fill="#0B0B0B" transform="translate(475,702)"/>
<path d="M0 0 C1.65 0 3.3 0 5 0 C5.36351562 1.12535156 5.72703125 2.25070312 6.1015625 3.41015625 C8.95435804 12.15451139 11.99082982 20.73654657 15.48828125 29.24609375 C16.58419265 31.92760952 17.61188202 34.626563 18.60546875 37.34765625 C18.87037109 38.07194824 19.13527344 38.79624023 19.40820312 39.54248047 C19.91375997 40.93402886 20.41408446 42.32749364 20.90820312 43.72314453 C22.78042162 48.86125678 24.43409254 51.9560617 29 55 C22.07 55 15.14 55 8 55 C11 53 11 53 14 53 C13.54762239 51.08191891 13.08785537 49.16557967 12.625 47.25 C12.36976563 46.18265625 12.11453125 45.1153125 11.8515625 44.015625 C11.12199766 41.07204412 11.12199766 41.07204412 9.8984375 38.796875 C9 37 9 37 9 34 C2.73 34 -3.54 34 -10 34 C-10.45375 35.546875 -10.9075 37.09375 -11.375 38.6875 C-12.21548083 41.50769161 -13.08379304 44.20727753 -14.1875 46.9375 C-15.18326226 49.09574278 -15.18326226 49.09574278 -15 52 C-12.69 52.66 -10.38 53.32 -8 54 C-8 54.33 -8 54.66 -8 55 C-14.27 55 -20.54 55 -27 55 C-25.35 53.68 -23.7 52.36 -22 51 C-20.3461587 48.50290593 -20.3461587 48.50290593 -19.0703125 45.6640625 C-18.56661133 44.60219727 -18.06291016 43.54033203 -17.54394531 42.44628906 C-14.86689915 36.47076984 -12.34412655 30.43830503 -9.875 24.375 C-9.35848058 23.11702004 -8.8415546 21.85920693 -8.32421875 20.6015625 C-5.51009067 13.75015247 -2.73531715 6.88324878 0 0 Z " fill="#090908" transform="translate(718,702)"/>
<path d="M0 0 C1.05574219 0.00580078 1.05574219 0.00580078 2.1328125 0.01171875 C7.11262916 0.09471569 11.41607427 0.68035809 16.125 2.25 C16.125 6.54 16.125 10.83 16.125 15.25 C14.125 14.25 14.125 14.25 12.8125 10.875 C10.92936181 6.82974019 10.05354276 6.09741671 6.125 4.25 C-0.51049399 3.31645464 -8.14429755 3.41247604 -13.875 7.25 C-20.13125626 13.45039683 -21.93581737 19.95705015 -22.1875 28.625 C-22.02330194 37.0473947 -20.40962016 43.57654855 -14.5390625 49.80859375 C-10.74383138 53.09601225 -6.74594201 54.39335342 -1.8125 54.5625 C2.55125731 54.37478112 2.55125731 54.37478112 8.125 52.25 C8.455 46.31 8.785 40.37 9.125 34.25 C6.815 33.59 4.505 32.93 2.125 32.25 C2.125 31.92 2.125 31.59 2.125 31.25 C8.725 31.25 15.325 31.25 22.125 31.25 C20.145 32.735 20.145 32.735 18.125 34.25 C17.57745117 36.36443807 17.57745117 36.36443807 17.734375 38.69921875 C17.74726562 39.54677734 17.76015625 40.39433594 17.7734375 41.26757812 C17.82371094 42.58918945 17.82371094 42.58918945 17.875 43.9375 C17.89304687 44.83017578 17.91109375 45.72285156 17.9296875 46.64257812 C17.97682241 48.84613504 18.04259343 51.04752601 18.125 53.25 C8.78637898 58.36400675 -3.05109951 58.52856845 -13.48046875 56.82421875 C-20.20649696 54.63591017 -26.058322 49.43957513 -29.375 43.25 C-32.43242402 35.26520959 -32.13453752 25.65051567 -29.1875 17.6875 C-25.28481589 9.4741857 -19.49854929 4.54078104 -11.11328125 1.125 C-7.36202701 0.1113921 -3.85400668 -0.05109479 0 0 Z " fill="#0C0C0B" transform="translate(573.875,700.75)"/>
<path d="M0 0 C12.87 0 25.74 0 39 0 C39 3.96 39 7.92 39 12 C38.34 11.67 37.68 11.34 37 11 C36.34 8.69 35.68 6.38 35 4 C28.4 4 21.8 4 15 4 C14.67 10.93 14.34 17.86 14 25 C18.95 24.67 23.9 24.34 29 24 C29.66 22.02 30.32 20.04 31 18 C31.66 18 32.32 18 33 18 C33 23.94 33 29.88 33 36 C32.34 36 31.68 36 31 36 C30.01 33.69 29.02 31.38 28 29 C21.07 28.505 21.07 28.505 14 28 C14.14011038 31.81279106 14.28680438 35.62512562 14.4375 39.4375 C14.47681641 40.52611328 14.51613281 41.61472656 14.55664062 42.73632812 C14.61948242 44.28803711 14.61948242 44.28803711 14.68359375 45.87109375 C14.72025146 46.82943115 14.75690918 47.78776855 14.79467773 48.77514648 C14.75834424 50.97138925 14.75834424 50.97138925 16 52 C18.40939516 52.12774845 20.77749676 52.18521564 23.1875 52.1875 C24.50105469 52.20167969 25.81460937 52.21585938 27.16796875 52.23046875 C30.91966909 52.00483132 33.61613216 51.62485284 37 50 C38.55422766 47.88124421 38.55422766 47.88124421 39.375 45.375 C39.69210937 44.55773437 40.00921875 43.74046875 40.3359375 42.8984375 C40.55507813 42.27195312 40.77421875 41.64546875 41 41 C41.33 41 41.66 41 42 41 C42.027193 42.58323688 42.04648306 44.16661062 42.0625 45.75 C42.07410156 46.63171875 42.08570313 47.5134375 42.09765625 48.421875 C42 51 42 51 41 55 C27.47 55 13.94 55 0 55 C2 53.66666667 4 52.33333333 6 51 C6.43709055 48.90500243 6.43709055 48.90500243 6.34057617 46.45849609 C6.34034958 45.51767181 6.34012299 44.57684753 6.33988953 43.60751343 C6.32440567 42.58976837 6.30892181 41.57202332 6.29296875 40.5234375 C6.28872391 39.48305328 6.28447906 38.44266907 6.28010559 37.37075806 C6.26327482 34.03857853 6.22561422 30.70699759 6.1875 27.375 C6.17245887 25.11980038 6.15876947 22.86459131 6.14648438 20.609375 C6.11335699 15.07271145 6.0631142 9.53639848 6 4 C4.02 3.34 2.04 2.68 0 2 C0 1.34 0 0.68 0 0 Z " fill="#040303" transform="translate(254,702)"/>
<path d="M0 0 C0 4.29 0 8.58 0 13 C-0.66 13 -1.32 13 -2 13 C-2.65104167 11.27473958 -3.30208333 9.54947917 -3.953125 7.82421875 C-5.32932518 5.42613859 -6.59998769 4.38031796 -9 3 C-14.59742637 2.07607818 -19.44617245 1.98403583 -24.25 5.125 C-26.32658223 8.53652795 -26.73507826 10.07958262 -26 14 C-22.4131284 19.65372526 -17.10569371 22.01983859 -11.375 25.07421875 C-6.24589072 27.92875837 -2.1851377 30.98467206 1 36 C2.30458467 40.77646322 1.48521441 44.90826757 -0.5 49.375 C-4.67036228 53.75388039 -9.42323352 56.15267288 -15.5078125 56.49609375 C-17.04699837 56.49740036 -18.5863391 56.47771795 -20.125 56.4375 C-20.89714844 56.44458984 -21.66929687 56.45167969 -22.46484375 56.45898438 C-27.37246338 56.40464106 -30.70040005 55.58937569 -35 53 C-35 49.04 -35 45.08 -35 41 C-34.34 41 -33.68 41 -33 41 C-32.75765625 41.54269531 -32.5153125 42.08539062 -32.265625 42.64453125 C-29.70537714 48.2211528 -29.70537714 48.2211528 -25 52 C-20.93751043 53.35416319 -17.24777396 53.54273091 -13 53 C-8.72596143 50.77561281 -8.72596143 50.77561281 -6 47 C-5.61268334 43.5141501 -5.6144472 41.61769192 -7.4921875 38.609375 C-11.30254053 34.64470861 -15.90660631 32.42462047 -20.71289062 29.83789062 C-26.4379683 26.64050775 -30.84050594 23.47848219 -33 17 C-33.38981277 12.8679846 -33.27518905 10.53979391 -31.375 6.8125 C-23.18957749 -2.8807635 -11.58417167 -2.15519473 0 0 Z " fill="#0B0B0A" transform="translate(844,702)"/>
<path d="M0 0 C6.93 0 13.86 0 21 0 C21 0.66 21 1.32 21 2 C19.68 2.33 18.36 2.66 17 3 C17.60638259 7.76837222 19.5991911 11.41465474 21.875 15.5625 C22.22691406 16.22185547 22.57882812 16.88121094 22.94140625 17.56054688 C24.75038989 20.90615787 26.59853423 24.03215079 29 27 C30.63721941 24.15268151 32.25746351 21.296039 33.875 18.4375 C34.33519531 17.63763672 34.79539062 16.83777344 35.26953125 16.01367188 C37.87333858 11.39097045 39.79208516 7.17181927 41 2 C39.35 2 37.7 2 36 2 C36 1.34 36 0.68 36 0 C41.94 0 47.88 0 54 0 C54 0.66 54 1.32 54 2 C52.40671875 2.54140625 52.40671875 2.54140625 50.78125 3.09375 C46.63548433 4.8788483 44.69130054 7.66226285 42.5 11.5 C41.74228575 12.77687368 40.98315566 14.05290818 40.22265625 15.328125 C39.85285645 15.95654297 39.48305664 16.58496094 39.10205078 17.23242188 C38 19 38 19 35.87109375 21.734375 C29.56999825 29.93216389 30.13788454 38.1150625 31 48 C31.25345239 50.14629008 31.25345239 50.14629008 32 52 C34.99615946 53.3045656 34.99615946 53.3045656 38 54 C38 54.33 38 54.66 38 55 C30.74 55 23.48 55 16 55 C19 53 19 53 21 52 C23.66872647 43.99382059 24.00168822 35.54742503 20.57177734 27.75537109 C13.54369223 12.70189442 13.54369223 12.70189442 1.8125 2.3125 C0.9153125 2.1578125 0.9153125 2.1578125 0 2 C0 1.34 0 0.68 0 0 Z " fill="#0A0A09" transform="translate(747,702)"/>
<path d="M0 0 C6.6 0 13.2 0 20 0 C20 0.33 20 0.66 20 1 C17.69 1.66 15.38 2.32 13 3 C12.90111911 9.19298642 12.82852514 15.38551332 12.78027344 21.57910156 C12.76015874 23.68595382 12.73286333 25.79275025 12.69824219 27.89941406 C12.64971832 30.92787447 12.62702984 33.95559678 12.609375 36.984375 C12.58872986 37.92617615 12.56808472 38.86797729 12.54681396 39.83831787 C12.48730549 45.06987959 12.48730549 45.06987959 14.87695312 49.58789062 C17.30451593 51.20254372 18.85551593 51.57973623 21.75 51.75 C22.94882812 51.83507812 22.94882812 51.83507812 24.171875 51.921875 C24.77515625 51.94765625 25.3784375 51.9734375 26 52 C26 52.66 26 53.32 26 54 C16.76 54 7.52 54 -2 54 C-0.04783565 52.04783565 1.53199953 51.15173355 4 50 C4.10128827 43.36154183 4.17141794 36.72328234 4.21972656 30.08422852 C4.23986166 27.82503818 4.26717189 25.56590008 4.30175781 23.30688477 C4.35019162 20.06253179 4.37294976 16.81886683 4.390625 13.57421875 C4.41127014 12.56163498 4.43191528 11.54905121 4.45318604 10.50578308 C4.45348816 9.56503433 4.45379028 8.62428558 4.45410156 7.6550293 C4.46298401 6.82674118 4.47186646 5.99845306 4.48101807 5.14506531 C4.11076985 2.40669409 4.11076985 2.40669409 0 0 Z " fill="#020202" transform="translate(310,703)"/>
<path d="M0 0 C7.26 0 14.52 0 22 0 C22 0.66 22 1.32 22 2 C20.02 2.66 18.04 3.32 16 4 C16 20.17 16 36.34 16 53 C17.98 53.33 19.96 53.66 22 54 C22 54.33 22 54.66 22 55 C14.74 55 7.48 55 0 55 C1.32 54.34 2.64 53.68 4 53 C4.99 52.34 5.98 51.68 7 51 C7.43709055 48.90500243 7.43709055 48.90500243 7.34057617 46.45849609 C7.34034958 45.51767181 7.34012299 44.57684753 7.33988953 43.60751343 C7.32440567 42.58976837 7.30892181 41.57202332 7.29296875 40.5234375 C7.28872391 39.48305328 7.28447906 38.44266907 7.28010559 37.37075806 C7.26327482 34.03857853 7.22561422 30.70699759 7.1875 27.375 C7.17245887 25.11980038 7.15876947 22.86459131 7.14648438 20.609375 C7.11335699 15.07271145 7.0631142 9.53639848 7 4 C4.69 3.34 2.38 2.68 0 2 C0 1.34 0 0.68 0 0 Z " fill="#080808" transform="translate(442,702)"/>
<path d="M0 0 C5.94 0 11.88 0 18 0 C18 0.66 18 1.32 18 2 C17.236875 2.18304687 16.47375 2.36609375 15.6875 2.5546875 C11.95399961 4.56252928 11.25767523 7.29693974 10 11.125 C9.6282666 12.18340088 9.6282666 12.18340088 9.24902344 13.26318359 C7.0458348 19.61810253 5.02831839 26.03992251 3.078125 32.4765625 C2.10111327 35.66955012 1.07045064 38.83730494 0 42 C-0.99 42 -1.98 42 -3 42 C-2.32370601 34.10990341 0.04847755 26.99447313 2.47265625 19.48828125 C4.22035237 13.95269144 5.50382762 8.7886778 6 3 C3.03 2.505 3.03 2.505 0 2 C0 1.34 0 0.68 0 0 Z " fill="#161615" transform="translate(227,702)"/>
<path d="M0 0 C0.66 0 1.32 0 2 0 C3.17192435 3.12305373 4.33663876 6.24874739 5.5 9.375 C5.83386719 10.26445313 6.16773438 11.15390625 6.51171875 12.0703125 C6.82753906 12.92109375 7.14335938 13.771875 7.46875 14.6484375 C7.90864258 15.82672119 7.90864258 15.82672119 8.35742188 17.02880859 C9 19 9 19 9 21 C3.39 21 -2.22 21 -8 21 C-5.72564796 13.81783567 -2.96415819 6.9241798 0 0 Z " fill="#E3E1D8" transform="translate(717,713)"/>
<path d="M0 0 C5.94 0 11.88 0 18 0 C18 0.66 18 1.32 18 2 C16.40865234 2.53947266 16.40865234 2.53947266 14.78515625 3.08984375 C10.6142427 4.88517283 8.65295133 7.71030227 6.4375 11.5625 C5.87397827 12.4898999 5.87397827 12.4898999 5.29907227 13.43603516 C4.18233955 15.28111331 3.0906098 17.13939948 2 19 C0.81274602 20.95848249 -0.37471675 22.91683846 -1.5625 24.875 C-2.3773796 26.24859109 -3.19092317 27.62298296 -4 29 C-5.265625 27.48828125 -5.265625 27.48828125 -6 25 C-4.94261235 22.19121421 -3.33838288 19.72469566 -1.75 17.1875 C1.32994795 12.17198843 3.64600717 7.75446951 5 2 C3.35 2 1.7 2 0 2 C0 1.34 0 0.68 0 0 Z " fill="#1B1B19" transform="translate(783,702)"/>
<path d="M0 0 C0.71736328 -0.00064453 1.43472656 -0.00128906 2.17382812 -0.00195312 C7.22747802 0.04853747 11.53597336 0.59532445 16.3125 2.1875 C16.3125 6.4775 16.3125 10.7675 16.3125 15.1875 C14.3125 14.1875 14.3125 14.1875 13 10.8125 C11.09995053 6.73091226 10.32851573 5.97783763 6.3125 4.1875 C3.61658429 3.97797287 1.17799491 3.90005569 -1.5 4 C-2.19287109 4.01353516 -2.88574219 4.02707031 -3.59960938 4.04101562 C-5.29591265 4.07611155 -6.99181136 4.12991057 -8.6875 4.1875 C-8.6875 3.5275 -8.6875 2.8675 -8.6875 2.1875 C-9.3475 1.8575 -10.0075 1.5275 -10.6875 1.1875 C-7.07981582 -0.01506139 -3.75667218 -0.00343075 0 0 Z " fill="#141413" transform="translate(573.6875,700.8125)"/>
<path d="M0 0 C0.66 0 1.32 0 2 0 C2.36351562 0.81404297 2.36351562 0.81404297 2.734375 1.64453125 C5.29462286 7.2211528 5.29462286 7.2211528 10 11 C13.14930893 12.04976964 15.38814456 12.10131595 18.6875 12.0625 C19.68136719 12.05347656 20.67523437 12.04445313 21.69921875 12.03515625 C22.45847656 12.02355469 23.21773437 12.01195312 24 12 C24 12.99 24 13.98 24 15 C21.12442297 15.08138426 18.25117738 15.14067851 15.375 15.1875 C14.16263672 15.22520508 14.16263672 15.22520508 12.92578125 15.26367188 C7.82310684 15.32589961 4.46860312 14.75491551 0 12 C0 8.04 0 4.08 0 0 Z " fill="#181817" transform="translate(809,743)"/>
<path d="M0 0 C12.21 0 24.42 0 37 0 C37 3.96 37 7.92 37 12 C36.34 11.67 35.68 11.34 35 11 C34.34 8.69 33.68 6.38 33 4 C26.73 3.67 20.46 3.34 14 3 C14 2.67 14 2.34 14 2 C7.07 1.505 7.07 1.505 0 1 C0 0.67 0 0.34 0 0 Z " fill="#333331" transform="translate(256,702)"/>
<path d="M0 0 C13.6332574 -0.18451025 13.6332574 -0.18451025 20 1 C20 5.29 20 9.58 20 14 C19.34 14 18.68 14 18 14 C17.5875 12.906875 17.175 11.81375 16.75 10.6875 C15.31608535 7.43159289 14.32408702 5.57456753 11 4 C8.66847933 3.6919062 6.37349917 3.49994017 4.0234375 3.40625 C2 3 2 3 0 0 Z " fill="#1B1A19" transform="translate(824,701)"/>
<path d="M0 0 C0.66 0 1.32 0 2 0 C2 5.94 2 11.88 2 18 C1.34 18 0.68 18 0 18 C-0.5878125 16.2984375 -0.5878125 16.2984375 -1.1875 14.5625 C-2.58610882 10.79660949 -2.58610882 10.79660949 -5.6875 10.0625 C-6.450625 10.041875 -7.21375 10.02125 -8 10 C-8 9.34 -8 8.68 -8 8 C-10.97 8 -13.94 8 -17 8 C-17 7.67 -17 7.34 -17 7 C-12.05 6.67 -7.1 6.34 -2 6 C-1.34 4.02 -0.68 2.04 0 0 Z " fill="#201F1E" transform="translate(285,720)"/>
<path d="M0 0 C0.66 0.33 1.32 0.66 2 1 C2 1.99 2 2.98 2 4 C-1.82320557 5.42258812 -4.91281305 6.24042276 -9 6 C-9 5.67 -9 5.34 -9 5 C-11.31 4.67 -13.62 4.34 -16 4 C-16 3.67 -16 3.34 -16 3 C-15.18015625 2.95101562 -14.3603125 2.90203125 -13.515625 2.8515625 C-12.43796875 2.77679687 -11.3603125 2.70203125 -10.25 2.625 C-9.18265625 2.55539062 -8.1153125 2.48578125 -7.015625 2.4140625 C-4.17078403 2.02344962 -2.50146309 1.29580295 0 0 Z " fill="#222221" transform="translate(665,751)"/>
<path d="M0 0 C1 3 1 3 -0.21484375 5.48046875 C-0.78332031 6.37378906 -1.35179687 7.26710938 -1.9375 8.1875 C-2.50339844 9.08855469 -3.06929687 9.98960937 -3.65234375 10.91796875 C-4.09707031 11.60503906 -4.54179688 12.29210937 -5 13 C-6.10546875 11.2265625 -6.10546875 11.2265625 -7 9 C-4.99857469 4.70064193 -3.95139674 2.6342645 0 0 Z " fill="#131312" transform="translate(784,718)"/>
<path d="M0 0 C-1.63828636 4.91485907 -5.93908054 6.44989362 -10.375 8.75 C-11.674375 9.36875 -11.674375 9.36875 -13 10 C-11.54845769 6.37114422 -9.7599362 4.84567327 -6.5 2.75 C-5.30890625 1.96882812 -5.30890625 1.96882812 -4.09375 1.171875 C-2 0 -2 0 0 0 Z " fill="#282826" transform="translate(516,239)"/>
<path d="M0 0 C-0.6796875 1.953125 -0.6796875 1.953125 -2 4 C-4.3828125 4.609375 -4.3828125 4.609375 -7.125 4.75 C-8.03507812 4.80671875 -8.94515625 4.8634375 -9.8828125 4.921875 C-10.58148438 4.94765625 -11.28015625 4.9734375 -12 5 C-3.89473684 -1.94736842 -3.89473684 -1.94736842 0 0 Z " fill="#1F1F1E" transform="translate(413,752)"/>
<path d="M0 0 C0.8971875 0.309375 0.8971875 0.309375 1.8125 0.625 C1.11125 1.0375 0.41 1.45 -0.3125 1.875 C-3.32903323 3.71115066 -6.25999245 5.65063445 -9.1875 7.625 C-9.8475 6.965 -10.5075 6.305 -11.1875 5.625 C-2.1875 -0.375 -2.1875 -0.375 0 0 Z " fill="#20201F" transform="translate(516.1875,307.375)"/>
<path d="M0 0 C0.66 0.99 1.32 1.98 2 3 C-2.455 5.97 -2.455 5.97 -7 9 C-7.66 8.34 -8.32 7.68 -9 7 C-8.43410156 6.57847656 -7.86820312 6.15695313 -7.28515625 5.72265625 C-6.55167969 5.17480469 -5.81820313 4.62695312 -5.0625 4.0625 C-4.33160156 3.51722656 -3.60070312 2.97195312 -2.84765625 2.41015625 C-1.0865547 1.13092062 -1.0865547 1.13092062 0 0 Z " fill="#2A2A28" transform="translate(503,231)"/>
<path d="M0 0 C0 0.66 0 1.32 0 2 C-0.66 2 -1.32 2 -2 2 C-2.33 3.65 -2.66 5.3 -3 7 C-3.99 6.67 -4.98 6.34 -6 6 C-5.625 3.5625 -5.625 3.5625 -5 1 C-3 0 -3 0 0 0 Z " fill="#212120" transform="translate(719,711)"/>
<path d="M0 0 C0.33 0 0.66 0 1 0 C1 3.3 1 6.6 1 10 C0.01 9.01 -0.98 8.02 -2 7 C-1.56521739 1.56521739 -1.56521739 1.56521739 0 0 Z " fill="#2E2E2C" transform="translate(295,743)"/>
<path d="M0 0 C0.99 0.33 1.98 0.66 3 1 C0.69 2.65 -1.62 4.3 -4 6 C-4.66 5.34 -5.32 4.68 -6 4 C-3.1875 1.9375 -3.1875 1.9375 0 0 Z " fill="#20201F" transform="translate(503,300)"/>
</svg>
